<svg width="63" height="65" viewBox="0 0 63 65" fill="none" xmlns="http://www.w3.org/2000/svg">
<path fill-rule="evenodd" clip-rule="evenodd" d="M8 14.7461C3.58172 14.7461 0 18.3278 0 22.7461V41.6643C0 46.0826 3.58172 49.6643 8 49.6643H55C59.4183 49.6643 63 46.0826 63 41.6643V22.7461C63 18.3278 59.4183 14.7461 55 14.7461H8ZM9.96436 16.5151C5.54608 16.5151 1.96436 20.0968 1.96436 24.5151V40.1303C1.96436 44.5485 5.54607 48.1303 9.96435 48.1303H53.0356C57.4539 48.1303 61.0356 44.5485 61.0356 40.1303V24.5151C61.0356 20.0968 57.4539 16.5151 53.0356 16.5151H9.96436Z" fill="#FEBC28"/>
<rect x="31" width="2.5" height="13" rx="1.25" fill="#FEBC28"/>
<rect width="2.5" height="12.184" rx="1.25" transform="matrix(0.65865 -0.75245 0.660332 0.750974 11.6459 3.83789)" fill="#FEBC28"/>
<rect width="2.5" height="12.1327" rx="1.25" transform="matrix(0.634298 0.773088 -0.684175 0.729318 50.9557 2.39893)" fill="#FEBC28"/>
<rect width="2.5" height="13" rx="1.25" transform="matrix(1 0 0 -1 31 64.1802)" fill="#FEBC28"/>
<rect width="2.5" height="12.184" rx="1.25" transform="matrix(0.65865 0.75245 0.660332 -0.750974 11.6459 60.3423)" fill="#FEBC28"/>
<rect width="2.5" height="12.1327" rx="1.25" transform="matrix(0.634298 -0.773088 -0.684175 -0.729318 50.9557 61.7812)" fill="#FEBC28"/>
<path d="M23.02 25.68H26.5L31.44 39H28.44L27.36 35.96H22.12L21.1 39H18.14L23.02 25.68ZM26.5 33.48L24.7 28.38L22.96 33.48H26.5ZM35.0742 39.02C34.1276 39.02 33.4209 39.0133 32.9542 39V25.68C33.5276 25.6667 34.3742 25.66 35.4942 25.66C36.6276 25.66 37.4742 25.6667 38.0342 25.68C39.3409 25.6933 40.4742 25.96 41.4342 26.48C42.4076 26.9867 43.1542 27.7133 43.6742 28.66C44.2076 29.6067 44.4742 30.7133 44.4742 31.98C44.4742 33.3667 44.1676 34.5867 43.5542 35.64C42.9542 36.6933 42.1009 37.5133 40.9942 38.1C39.9009 38.6867 38.6276 38.9867 37.1742 39C36.7076 39.0133 36.0076 39.02 35.0742 39.02ZM37.1542 36.48C38.5009 36.48 39.5609 36.0867 40.3342 35.3C41.1076 34.5133 41.4942 33.4333 41.4942 32.06C41.4942 30.82 41.1609 29.8667 40.4942 29.2C39.8409 28.5333 38.8942 28.2 37.6542 28.2H35.8542V36.48H37.1542Z" fill="#FEBC28"/>
<rect x="48.9332" y="43" width="12.0668" height="1.73774" rx="0.86887" fill="#FEBC28"/>
<rect x="45" y="43" width="2" height="1.6815" rx="0.840749" fill="#FEBC28"/>
<rect width="12.0668" height="1.98494" rx="0.992472" transform="matrix(-1 0 0 1 13.0668 20)" fill="#FEBC28"/>
<rect width="2" height="1.6815" rx="0.840749" transform="matrix(-1 0 0 1 18 20)" fill="#FEBC28"/>
</svg>
