<svg xmlns="http://www.w3.org/2000/svg" viewBox="0 0 133.71 140"><defs><style>.\33 {fill:none;stroke:#140404;stroke-linecap:round;stroke-linejoin:round;stroke-width:4px;}</style></defs><g id="Layer_2" data-name="Layer 2"><g id="VECTOR"><path class="3" d="M92.64,70a9.26,9.26,0,1,1,9.3-9.25"/><path class="3" d="M92.64,70a9.26,9.26,0,1,1-9.3,9.25"/><line class="3" x1="92.64" y1="96.44" x2="92.64" y2="88.51"/><line class="3" x1="92.64" y1="51.49" x2="92.64" y2="43.56"/><path class="3" d="M50.31,69.7a40.27,40.27,0,0,0,3.44,16.37l-7.09,24.3L65,101h0a40.5,40.5,0,0,0,21.36,9.14v11.7a15.92,15.92,0,0,1-.3,3.11A16.22,16.22,0,0,1,70.1,138H18.22A16.21,16.21,0,0,1,2.3,124.91,15.92,15.92,0,0,1,2,121.8V18.2A16.21,16.21,0,0,1,18.22,2H70.1A16.21,16.21,0,0,1,86.33,18.2V29.32A40.65,40.65,0,0,0,50.31,69.7Z"/><line class="3" x1="2" y1="18.2" x2="86.33" y2="18.2"/><line class="3" x1="2" y1="124.91" x2="86.33" y2="124.91"/><path class="3" d="M131.71,69.7A40.69,40.69,0,0,1,91,110.37,40.74,40.74,0,0,1,65,101h0l-18.3,9.41,7.09-24.3A40.68,40.68,0,0,1,91,29.05,40.68,40.68,0,0,1,131.71,69.7Z"/></g></g></svg>