<svg width="19" height="15" viewBox="0 0 19 15" fill="none" xmlns="http://www.w3.org/2000/svg">
<path d="M11 10.7505C11 12.8219 12.791 14.501 15 14.501C15.3962 14.5016 15.7907 14.4465 16.1735 14.3371C16.4655 14.4957 17.136 14.8 18.264 14.9982C18.364 15.0154 18.44 14.9039 18.4005 14.8043C18.2235 14.3564 18.0635 13.7595 18.0155 13.2151C18.628 12.5561 19 11.6935 19 10.7505C19 8.67916 17.209 7 15 7C12.791 7 11 8.67916 11 10.7505Z" fill="white"/>
<path fill-rule="evenodd" clip-rule="evenodd" d="M8 14C12.418 14 16 10.866 16 7C16 3.134 12.418 0 8 0C3.582 0 0 3.134 0 7C0 8.76 0.744 10.37 1.969 11.6C1.873 12.616 1.553 13.73 1.199 14.566C1.12 14.752 1.272 14.96 1.472 14.928C3.728 14.558 5.069 13.99 5.653 13.694C6.41859 13.8982 7.20765 14.0011 8 14ZM4.70711 7.70711C4.89464 7.51957 5 7.26522 5 7C5 6.73478 4.89464 6.48043 4.70711 6.29289C4.51957 6.10536 4.26522 6 4 6C3.73478 6 3.48043 6.10536 3.29289 6.29289C3.10536 6.48043 3 6.73478 3 7C3 7.26522 3.10536 7.51957 3.29289 7.70711C3.48043 7.89464 3.73478 8 4 8C4.26522 8 4.51957 7.89464 4.70711 7.70711ZM8.70711 7.70711C8.89464 7.51957 9 7.26522 9 7C9 6.73478 8.89464 6.48043 8.70711 6.29289C8.51957 6.10536 8.26522 6 8 6C7.73478 6 7.48043 6.10536 7.29289 6.29289C7.10536 6.48043 7 6.73478 7 7C7 7.26522 7.10536 7.51957 7.29289 7.70711C7.48043 7.89464 7.73478 8 8 8C8.26522 8 8.51957 7.89464 8.70711 7.70711ZM12.7071 7.70711C12.5196 7.89464 12.2652 8 12 8C11.7348 8 11.4804 7.89464 11.2929 7.70711C11.1054 7.51957 11 7.26522 11 7C11 6.73478 11.1054 6.48043 11.2929 6.29289C11.4804 6.10536 11.7348 6 12 6C12.2652 6 12.5196 6.10536 12.7071 6.29289C12.8946 6.48043 13 6.73478 13 7C13 7.26522 12.8946 7.51957 12.7071 7.70711Z" fill="white"/>
</svg>
