<svg xmlns="http://www.w3.org/2000/svg" viewBox="0 0 140 111.8801"><defs><style>.cls-1{fill:none;stroke:#000;stroke-linecap:round;stroke-linejoin:round;stroke-width:4px;}</style></defs><title>Co-operate</title><g id="Layer_2" data-name="Layer 2"><g id="VECTOR"><path class="cls-1" d="M2,76.58011l7.65724-7.54993,9.43292-9.29456,3.23678,3.1914,5.10487,4.97858a7.65358,7.65358,0,0,0,9.83361-.55319,7.28513,7.28513,0,0,0,.83854-9.48909l-.03085-.03647a6.89369,6.89369,0,0,0-.783-.91791,7.54532,7.54532,0,0,0,10.56724,0,7.2904,7.2904,0,0,0,.13577-10.27933c-.0432-.04864-.0864-.0912-.13577-.13984a7.55116,7.55116,0,0,0,10.56739.00608,7.29465,7.29465,0,0,0,0-10.41917,7.77781,7.77781,0,0,0,.9555.79633c.01234.01217.03086.01826.0432.03043a7.55458,7.55458,0,0,0,9.56854-.82676,7.29426,7.29426,0,0,0,0-10.41913l-7.6881-7.54388,8.69929-8.57726,1.55352-1.538a7.69736,7.69736,0,0,1,10.703-.18236,7.28375,7.28375,0,0,1,.85089,9.47087,7.22937,7.22937,0,0,1-.8262.97261,7.5453,7.5453,0,0,1,10.56724,0,7.29433,7.29433,0,0,1,0,10.41917,7.53792,7.53792,0,0,1,10.56121,0,7.29429,7.29429,0,0,1,0,10.41916,7.29147,7.29147,0,0,1,.95565-.79024,7.54977,7.54977,0,0,1,9.61159.79024,7.2943,7.2943,0,0,1,0,10.41917L80.94655,82.08755a29.88066,29.88066,0,0,1-10.94339,6.857H69.997A29.896,29.896,0,0,1,60.92155,90.677a15.19336,15.19336,0,0,0-5.43767,1.21577,14.95138,14.95138,0,0,0-4.60546,3.09415l-5.83851,5.75666-9.26644,9.13654"/><path class="cls-1" d="M104.22668,109.8801,98.758,104.48816,89.11555,94.9869a14.95489,14.95489,0,0,0-4.60545-3.09415A15.19012,15.19012,0,0,0,79.07845,90.677a29.89515,29.89515,0,0,1-9.07529-1.73246,29.88066,29.88066,0,0,0,10.94339-6.857L112.26624,51.207,138,76.58011"/><line class="cls-1" x1="82.07956" y1="18.46445" x2="76.00962" y2="24.64207"/><line class="cls-1" x1="83.92433" y1="16.48455" x2="83.11051" y2="17.28696"/><line class="cls-1" x1="92.72701" y1="28.96263" x2="86.65707" y2="35.14026"/><line class="cls-1" x1="94.57178" y1="26.98274" x2="92.85167" y2="28.67874"/><line class="cls-1" x1="103.3683" y1="39.45474" x2="97.29836" y2="45.63236"/><line class="cls-1" x1="105.21307" y1="37.47484" x2="104.36842" y2="38.30765"/><path class="cls-1" d="M27.43181,67.9056a7.60273,7.60273,0,0,1-.8694-.73555l-4.29719-4.18226.06172-.06077Z"/><path class="cls-1" d="M39.47881,62.11852a7.30938,7.30938,0,0,1-2.21339,5.23389,7.65358,7.65358,0,0,1-9.83361.55319L22.32694,62.927l-7.18258-7.08188a7.29449,7.29449,0,0,1,0-10.41917,7.5511,7.5511,0,0,1,10.56732,0l3.90884,3.92087,8.45259,8.48.03085.03647A7.29931,7.29931,0,0,1,39.47881,62.11852Z"/><path class="cls-1" d="M50.04605,51.69935a7.33776,7.33776,0,0,1-2.18871,5.20959,7.54532,7.54532,0,0,1-10.56724,0,6.89369,6.89369,0,0,1,.783.91791l-8.45259-8.48L25.71168,45.426a7.29426,7.29426,0,0,1,0-10.41913,7.55274,7.55274,0,0,1,9.70415-.72947l.01235.01213,4.74107,4.65642,7.82386,7.68369A7.307,7.307,0,0,1,50.04605,51.69935Z"/><path class="cls-1" d="M60.61329,41.28627a7.32464,7.32464,0,0,1-2.18856,5.20958,7.55116,7.55116,0,0,1-10.56739-.00608c.04937.04864.09257.0912.13577.13984l-7.82386-7.68369L35.42818,34.2895a7.817,7.817,0,0,1,.84456.71734,7.29465,7.29465,0,0,1,0-10.41917,7.55111,7.55111,0,0,1,10.56739,0L50.80437,28.466l8.57586,8.407a7.77781,7.77781,0,0,1-.9555-.79633A7.2939,7.2939,0,0,1,60.61329,41.28627Z"/><path class="cls-1" d="M61.30387,18.11367l7.6881,7.54388a7.29426,7.29426,0,0,1,0,10.41913,7.55458,7.55458,0,0,1-9.56854.82676c-.01234-.01217-.03086-.01826-.0432-.03043l-8.57586-8.407-3.96424-3.87831c-1.45507-1.4346-1.98426-1.62625-1.98426-3.51068"/><line class="cls-1" x1="38.93005" y1="58.68397" x2="38.07308" y2="57.82686"/><line class="cls-1" x1="49.57751" y1="48.18579" x2="47.99303" y2="46.6296"/><line class="cls-1" x1="60.21879" y1="37.69368" x2="59.38031" y2="36.87304"/><path class="cls-1" d="M62.41651,18.46445,45.03735,21.43083a7.43129,7.43129,0,0,1-3.83794-4.18052A7.32315,7.32315,0,0,1,44.538,8.37025c.01643-.00579.02994-.01968.04638-.02547L55.96148,4.30232l5.2519-1.872a7.55782,7.55782,0,0,1,5.712.28,7.37469,7.37469,0,0,1,3.8441,4.21034"/></g></g></svg>