<svg xmlns="http://www.w3.org/2000/svg" viewBox="0 0 140.45699 126.57531"><defs><style>.cls-1{fill:none;stroke:#000;stroke-linecap:round;stroke-linejoin:round;stroke-width:4px;}</style></defs><title>Computer</title><g id="Layer_2" data-name="Layer 2"><g id="VECTOR"><path class="cls-1" d="M138.457,14.4298A12.42983,12.42983,0,0,0,126.02719,2H14.4298A12.42978,12.42978,0,0,0,2,14.4298V87.35948H138.457Z"/><path class="cls-1" d="M2,87.35948v2.78131a12.42973,12.42973,0,0,0,12.4298,12.42979H126.02719A12.42978,12.42978,0,0,0,138.457,90.14079V87.35948Z"/><polygon class="cls-1" points="84.892 102.571 59.11 102.571 51.497 124.575 92.504 124.575 84.892 102.571"/><rect class="cls-1" x="17.2111" y="21.49389" width="39.43076" height="48.73464"/><line class="cls-1" x1="67.27487" y1="26.07195" x2="126.64253" y2="26.07195"/><line class="cls-1" x1="67.27487" y1="44.67974" x2="126.64253" y2="44.67974"/><line class="cls-1" x1="67.27487" y1="63.28753" x2="126.64253" y2="63.28753"/><line class="cls-1" x1="40.53839" y1="124.57531" x2="103.6275" y2="124.57531"/></g></g></svg>