<svg width="50" height="46" viewBox="0 0 50 46" fill="none" xmlns="http://www.w3.org/2000/svg">
<path d="M49.288 5.13668C49.288 3.96316 48.8218 2.83771 47.992 2.0079C47.1622 1.1781 46.0367 0.711916 44.8632 0.711914H5.13669C4.55562 0.711913 3.98024 0.826363 3.4434 1.04873C2.90656 1.27109 2.41878 1.59702 2.0079 2.0079C1.59702 2.41878 1.27109 2.90656 1.04873 3.4434C0.826363 3.98024 0.711913 4.55562 0.711914 5.13668V31.0983H49.288V5.13668Z" stroke="white" stroke-width="2" stroke-linecap="round" stroke-linejoin="round"/>
<path d="M0.711914 31.0986V32.0887C0.711911 32.6698 0.826359 33.2452 1.04872 33.782C1.27109 34.3189 1.59701 34.8066 2.00789 35.2175C2.41877 35.6284 2.90656 35.9543 3.4434 36.1767C3.98023 36.399 4.55562 36.5135 5.13669 36.5135H44.8632C45.4443 36.5135 46.0197 36.399 46.5565 36.1767C47.0933 35.9543 47.5811 35.6284 47.992 35.2175C48.4029 34.8066 48.7288 34.3189 48.9512 33.782C49.1735 33.2452 49.288 32.6698 49.288 32.0887V31.0986H0.711914Z" stroke="white" stroke-width="2" stroke-linecap="round" stroke-linejoin="round"/>
<path d="M30.2198 36.5137H21.0419L18.3318 44.3467H32.9295L30.2198 36.5137Z" stroke="white" stroke-width="2" stroke-linecap="round" stroke-linejoin="round"/>
<path d="M20.1633 7.65137H6.12671V25H20.1633V7.65137Z" stroke="white" stroke-width="2" stroke-linecap="round" stroke-linejoin="round"/>
<path d="M23.9485 9.28125H45.0822" stroke="white" stroke-width="2" stroke-linecap="round" stroke-linejoin="round"/>
<path d="M23.9485 15.9053H45.0822" stroke="white" stroke-width="2" stroke-linecap="round" stroke-linejoin="round"/>
<path d="M23.9485 22.5293H45.0822" stroke="white" stroke-width="2" stroke-linecap="round" stroke-linejoin="round"/>
<path d="M14.4309 44.3467H36.8894" stroke="white" stroke-width="2" stroke-linecap="round" stroke-linejoin="round"/>
</svg>
