<svg width="92" height="93" viewBox="0 0 92 93" fill="none" xmlns="http://www.w3.org/2000/svg">
<path d="M67.2981 23.8381C67.2981 36.4403 57.7572 54.1323 45.9813 54.1323C34.2055 54.1323 24.6646 36.4403 24.6646 23.8381C24.6646 11.2358 34.2055 1 45.9813 1C57.7572 1 67.2981 11.217 67.2981 23.8381Z" stroke="#3498DB" stroke-width="2" stroke-miterlimit="10" stroke-linecap="round" stroke-linejoin="round"/>
<path d="M34.1865 33.7168H57.7571C57.7571 33.7168 56.1419 45.1922 45.9812 45.3612C35.8017 45.5115 34.1865 33.7168 34.1865 33.7168Z" fill="#3498DB" stroke="#3498DB" stroke-width="2" stroke-miterlimit="10" stroke-linecap="round" stroke-linejoin="round"/>
<path d="M85.0651 67.0164C81.4967 63.6358 60.3301 57.4004 60.3301 57.4004L46 73.4208L31.6699 57.4004C31.6699 57.4004 10.5033 63.6358 6.93489 67.0164C1.43197 72.2188 1 91.8077 1 91.8077H91C90.9812 91.789 90.568 72.2188 85.0651 67.0164Z" fill="#3498DB" stroke="#3498DB" stroke-width="2" stroke-miterlimit="10" stroke-linecap="round" stroke-linejoin="round"/>
</svg>
