<svg xmlns="http://www.w3.org/2000/svg" viewBox="0 0 157.19351 130.47858"><defs><style>.cls-1{fill:none;stroke:#000;stroke-linecap:round;stroke-linejoin:round;stroke-width:4px;}</style></defs><title>Cooperation</title><g id="Layer_2" data-name="Layer 2"><g id="VECTOR"><polygon class="cls-1" points="58.19 30.405 30.041 58.832 24.531 53.267 52.68 24.84 58.19 30.405"/><polygon class="cls-1" points="34.832 2.089 2 35.245 22.189 55.633 55.021 22.477 34.832 2.089"/><path class="cls-1" d="M115.15963,96.247c6.2787,6.15275-3.89991,16.42373-9.98439,10.083,6.27061,6.161-3.908,16.44013-10.00063,10.09941a6.84494,6.84494,0,0,1-.63108,10.09119,6.57377,6.57377,0,0,1-9.36141,0l-6.59427-6.65935,2.85618-2.89257a7.26844,7.26844,0,0,0,.22653-10.19742l-.089-.098a7.10818,7.10818,0,0,0-10.10578.23694l-1.90949,1.93652-.92239.93151-.13754-.13889,2.84-2.868a7.26844,7.26844,0,0,0,.22653-10.19741l-.089-.08992a7.09079,7.09079,0,0,0-10.09768.22881l-2.81573,2.85168-.04855-.049a.92524.92524,0,0,0-.089-.08987l2.81569-2.85168a7.26848,7.26848,0,0,0,.22657-10.19747l-.089-.08987a7.09812,7.09812,0,0,0-10.09772.22877L48.4647,89.367l-.09709-.098c-.0162-.01636-.03235-.02454-.04045-.0409l1.3593-1.36455.0728-.08169L51.151,86.38455A7.27883,7.27883,0,0,0,51.38558,76.179l-.09709-.08987a7.09809,7.09809,0,0,0-10.09768.22876l-2.80764,2.83537L30.04125,58.8319l28.149-28.427,20.1873,8.44067.178.17974s-9.07014,4.80456-18.68237,15.83544c-7.38713,7.91772,1.73151,15.98251,8.37432,11.513,0,0,16.79713-16.33386,24.47558-13.03279h.0081l25.79443,26.05739,3.552,3.58709-.02424.03267C133.60733,91.55682,122.25554,102.66939,115.15963,96.247Z"/><polygon class="cls-1" points="132.669 53.178 132.669 53.186 127.159 58.742 99.01 30.315 104.52 24.759 132.669 53.178"/><polygon class="cls-1" points="155.194 35.156 122.361 2 102.173 22.388 135.005 55.545 155.194 35.156"/><path class="cls-1" d="M81.444,116.96867l-2.85618,2.89257-.06469-.06538L76.62172,121.716l-1.53728,1.55251-.0243-.03271c-8.46326,11.66823-19.46718.20427-13.09949-6.9535-6.09257,6.34067-16.27119-3.93844-9.99249-10.09124-6.10072,6.34072-16.27119-3.94661-9.99254-10.09118A6.70593,6.70593,0,0,1,31.975,95.45436a6.73909,6.73909,0,0,1,0-9.45382l6.57807-6.643a1.14457,1.14457,0,0,1-.14563-.14708l-.0243-.0572,2.80764-2.83537a7.09809,7.09809,0,0,1,10.09768-.22876l.09709.08987A7.27883,7.27883,0,0,1,51.151,86.38455l-2.82379,2.8435c.04045.049.089.08992.13754.13894l2.82379-2.85172a7.09812,7.09812,0,0,1,10.09772-.22877l.089.08987a7.26848,7.26848,0,0,1-.22657,10.19747l-2.81569,2.85168c.04855.04084.089.08987.13754.13889l2.81573-2.85168a7.09079,7.09079,0,0,1,10.09768-.22881l.089.08992a7.26844,7.26844,0,0,1-.22653,10.19741l-2.84,2.868.13754.13889,2.83188-2.868a7.10818,7.10818,0,0,1,10.10578-.23694l.089.098A7.26844,7.26844,0,0,1,81.444,116.96867Z"/><path class="cls-1" d="M78.58785,119.86124l-1.12463,1.12756a6.97973,6.97973,0,0,1-.8415.72723l1.90144-1.92017Z"/><line class="cls-1" x1="40.97663" y1="97.11542" x2="49.76058" y2="87.78463"/><line class="cls-1" x1="51.09031" y1="107.42031" x2="59.87426" y2="98.08952"/><line class="cls-1" x1="61.20399" y1="117.7252" x2="69.98795" y2="108.39441"/><path class="cls-1" d="M127.15875,58.742l-8.36622,20.3867-.267.26966L92.73113,53.341H92.723c-7.67845-3.30107-24.47558,13.03279-24.47558,13.03279-6.64281,4.46952-15.76145-3.59527-8.37432-11.513C69.48536,43.82987,78.5555,39.02531,78.5555,39.02531c.14564-.13889.23463-.22876.267-.26143L99.00983,30.315Z"/><path class="cls-1" d="M92.73111,53.341c7.67846,3.31743,11.902-.17977,11.902-.17977"/></g></g></svg>