<svg width="88" height="100" viewBox="0 0 88 100" fill="none" xmlns="http://www.w3.org/2000/svg">
<g filter="url(#filter0_d_420_41)">
<path d="M44 0C24.7314 0 4 5.80857 4 18.5714V72.8571C4 85.6143 24.7314 91.4286 44 91.4286C63.2657 91.4286 84 85.6143 84 72.8571V18.5714C84 5.80857 63.2629 0 44 0ZM78.2857 72.8571C78.2857 79.9543 62.9343 85.7143 44 85.7143C25.0629 85.7143 9.71429 79.9543 9.71429 72.8571V62.1829C15.6171 68.2657 29.8571 71.4286 44 71.4286C58.1429 71.4286 72.3829 68.2657 78.2857 62.1829V72.8571ZM78.2857 55.7143H78.2743C78.2743 55.7429 78.2857 55.7743 78.2857 55.8029C78.2857 62.8571 62.9343 68.5714 44 68.5714C25.0657 68.5714 9.71429 62.8571 9.71429 55.8029C9.71429 55.7743 9.72572 55.7429 9.72572 55.7143H9.71429V45.04C15.6171 51.1229 29.8571 54.2857 44 54.2857C58.1429 54.2857 72.3829 51.1229 78.2857 45.04V55.7143ZM78.2857 38.5714H78.2743C78.2743 38.6 78.2857 38.6314 78.2857 38.66C78.2857 45.7143 62.9343 51.4286 44 51.4286C25.0657 51.4286 9.71429 45.7143 9.71429 38.66C9.71429 38.6314 9.72572 38.6 9.72572 38.5714H9.71429V28.7543C17.2029 34.46 30.9286 37.1429 44 37.1429C57.0714 37.1429 70.7971 34.46 78.2857 28.7543V38.5714ZM44 31.4286C25.0629 31.4286 9.71429 25.6686 9.71429 18.5714C9.71429 11.4686 25.0629 5.71429 44 5.71429C62.9343 5.71429 78.2857 11.4686 78.2857 18.5714C78.2857 25.6686 62.9343 31.4286 44 31.4286Z" fill="#3498DB"/>
</g>
<path d="M69.7143 77.1428C71.2923 77.1428 72.5715 75.8636 72.5715 74.2856C72.5715 72.7077 71.2923 71.4285 69.7143 71.4285C68.1364 71.4285 66.8572 72.7077 66.8572 74.2856C66.8572 75.8636 68.1364 77.1428 69.7143 77.1428Z" fill="#3498DB"/>
<path d="M69.7143 59.9999C71.2923 59.9999 72.5715 58.7207 72.5715 57.1428C72.5715 55.5648 71.2923 54.2856 69.7143 54.2856C68.1364 54.2856 66.8572 55.5648 66.8572 57.1428C66.8572 58.7207 68.1364 59.9999 69.7143 59.9999Z" fill="#3498DB"/>
<path d="M69.7143 42.8571C71.2923 42.8571 72.5715 41.5779 72.5715 40C72.5715 38.422 71.2923 37.1428 69.7143 37.1428C68.1364 37.1428 66.8572 38.422 66.8572 40C66.8572 41.5779 68.1364 42.8571 69.7143 42.8571Z" fill="#3498DB"/>
<defs>
<filter id="filter0_d_420_41" x="0" y="0" width="88" height="99.4285" filterUnits="userSpaceOnUse" color-interpolation-filters="sRGB">
<feFlood flood-opacity="0" result="BackgroundImageFix"/>
<feColorMatrix in="SourceAlpha" type="matrix" values="0 0 0 0 0 0 0 0 0 0 0 0 0 0 0 0 0 0 127 0" result="hardAlpha"/>
<feOffset dy="4"/>
<feGaussianBlur stdDeviation="2"/>
<feComposite in2="hardAlpha" operator="out"/>
<feColorMatrix type="matrix" values="0 0 0 0 0 0 0 0 0 0 0 0 0 0 0 0 0 0 0.25 0"/>
<feBlend mode="normal" in2="BackgroundImageFix" result="effect1_dropShadow_420_41"/>
<feBlend mode="normal" in="SourceGraphic" in2="effect1_dropShadow_420_41" result="shape"/>
</filter>
</defs>
</svg>
