<svg width="90" height="93" viewBox="0 0 90 93" fill="none" xmlns="http://www.w3.org/2000/svg">
<path d="M82.4304 76.5513C81.8591 78.2651 80.5737 79.5505 79.0027 80.2646L77.8601 80.8359C65.5774 86.2632 52.4378 89.2624 39.1553 89.4053C33.4424 89.5481 27.8724 89.1196 22.1595 88.2627L12.4476 86.6916L13.0189 89.4053C13.0189 89.8337 13.0188 90.1194 12.7332 90.5478C12.4476 90.8335 12.1619 91.1191 11.8763 91.1191L2.16436 92.833C2.16436 92.833 2.02154 92.833 1.87872 92.833C1.16461 92.833 0.593321 92.4045 0.450498 91.6904C0.307676 90.9763 0.878965 90.1194 1.59308 89.9765L9.87676 88.4055L5.44928 64.5542C5.30645 64.4114 5.30645 64.2686 5.30645 64.1257C5.30645 63.9829 5.30645 63.6973 5.30645 63.5544L4.87799 61.1265L1.7359 61.6978C1.02179 61.8406 0.164854 61.2693 0.0220319 60.5552C-0.12079 59.8411 0.450498 58.9841 1.16461 58.8413L5.73492 57.9844C6.16339 57.9844 6.44903 57.9844 6.8775 58.27C7.16314 58.4128 7.44879 58.8413 7.44879 59.127L7.87725 61.9834C20.4456 59.4126 33.8709 59.9839 48.0103 63.8401C50.8667 64.697 52.4378 67.5535 52.0093 70.4099C52.0093 70.8384 51.8665 71.2668 51.5808 71.6953L75.8606 67.8391H76.0034C78.5742 67.6963 81.0022 69.1245 82.1448 71.4097C83.0017 72.9807 83.0017 74.8374 82.4304 76.5513Z" fill="#3498DB"/>
<path d="M88.1434 0L75.4322 0.142822C74.5753 0.142822 74.004 0.856933 74.004 1.57104V3.14209L42.8688 3.71338C39.2982 3.71338 35.7277 4.85595 32.7284 6.99829C32.5856 6.99829 32.5856 7.14111 32.4428 7.14111L20.3029 19.9951C11.3051 21.2805 4.16397 29.2785 4.30679 38.7048C4.44962 48.8452 12.8761 57.1289 23.1593 56.9861C33.2997 56.8432 41.5834 48.4167 41.4406 38.1335C41.2977 32.8491 39.0126 27.9931 35.2992 24.7082L38.7269 21.2805C40.8693 19.9951 43.4401 19.8523 45.7252 20.852L48.296 21.9946C49.5814 22.5659 50.5812 23.7085 50.8668 25.1367C51.1525 26.5649 50.724 27.9931 49.7242 28.9929L43.8685 34.9914C42.1547 36.7053 41.4406 38.9905 41.5834 41.2756C41.7262 43.5608 43.0116 45.7031 44.8683 47.1313C45.5824 47.7026 46.4393 47.8454 47.2963 47.8454C48.296 47.8454 49.2958 47.417 50.0099 46.7029L62.1498 35.2771C65.4347 32.135 70.005 30.9924 74.4325 31.8493V33.706C74.4325 34.563 75.1466 35.1343 75.8607 35.1343L88.5719 34.9914C89.286 34.9914 90.0001 34.2773 90.0001 33.5632L89.5716 1.42822C89.5716 0.714111 88.8575 0 88.1434 0ZM20.7313 36.134C21.3026 36.7053 22.0167 36.9909 22.7309 36.9909C25.8729 36.9909 28.5866 39.4189 28.5866 42.7038C28.5866 45.4175 26.8727 47.5598 24.4447 48.2739V50.4162C24.4447 51.1303 23.8734 51.8445 23.0165 51.8445C22.3024 51.8445 21.5883 51.2732 21.5883 50.4162V48.2739C19.0175 47.7026 17.1608 45.4175 17.1608 42.7038C17.1608 41.9897 17.7321 41.2756 18.589 41.2756C19.4459 41.2756 20.0172 41.8469 20.0172 42.7038C20.0172 44.2749 21.3026 45.5603 23.0165 45.5603C24.5875 45.5603 25.8729 44.1321 25.8729 42.561C25.8729 41.7041 25.5873 40.99 25.016 40.5615C24.4447 39.9902 23.7306 39.7046 23.0165 39.7046C19.8744 39.7046 17.1608 37.2766 17.1608 33.9917C17.1608 31.2781 18.8747 28.9929 21.4455 28.4216V26.2793C21.4455 25.5652 22.0167 24.8511 22.8737 24.8511C23.7306 24.8511 24.3019 25.4223 24.3019 26.2793V28.4216C26.7299 28.9929 28.7294 31.2781 28.7294 33.9917C28.7294 34.7058 28.1581 35.4199 27.3012 35.4199C26.5871 35.4199 25.8729 34.8486 25.8729 33.9917C25.8729 32.4206 24.5875 31.1352 22.8737 31.1352C21.3026 31.1352 20.0172 32.5635 20.0172 34.1345C20.0172 34.9914 20.3029 35.7055 20.7313 36.134ZM74.4325 29.1357C69.2909 28.2788 64.0065 29.8498 60.1503 33.4204L48.0104 44.8462C47.5819 45.2746 47.0106 45.2746 46.5822 44.989C45.2968 44.1321 44.5826 42.7038 44.4398 41.2756C44.297 39.7046 44.8683 38.2763 45.868 37.1338L51.7238 31.1352C53.4376 29.4214 54.1517 26.9934 53.5804 24.7082C53.152 22.4231 51.5809 20.4236 49.4386 19.4238L46.8678 18.2812C43.7257 16.853 40.0123 17.1387 37.0131 18.9954C36.8703 18.9954 36.8703 19.1382 36.7274 19.1382L32.8712 22.9944C30.4433 21.4233 27.444 20.2807 24.3019 19.9951L34.5851 9.28344C37.0131 7.56958 40.0123 6.71264 43.0116 6.56982L74.1468 6.14135L74.4325 29.1357Z" fill="#3498DB"/>
</svg>
