<svg xmlns="http://www.w3.org/2000/svg" viewBox="0 0 126.72821 152.32119"><defs><style>.cls-1{fill:none;stroke:#000;stroke-linecap:round;stroke-linejoin:round;stroke-width:4px;}</style></defs><title>Geography</title><g id="Layer_2" data-name="Layer 2"><g id="VECTOR"><path class="cls-1" d="M108.717,12.12974,98.45719,22.38966a54.13945,54.13945,0,0,1-76.082,76.0819L12.12974,108.717A68.56242,68.56242,0,0,0,108.717,12.12974Z"/><line class="cls-1" x1="56.13767" y1="148.26092" x2="56.13767" y2="124.73165"/><line class="cls-1" x1="17.22008" y1="150.32119" x2="93.10675" y2="150.32119"/><path class="cls-1" d="M11.9275,87.37358a54.11466,54.11466,0,0,1-1.922-59.565c-.11563,10.072.80923,25.92423,7.2108,30.49055C25.52539,64.22391,21.0313,83.68872,11.9275,87.37358Z"/><path class="cls-1" d="M110.26323,57.53332A54.11731,54.11731,0,0,1,11.9275,87.37358c9.1038-3.68486,13.59789-23.14967,5.28885-29.07443-6.40157-4.56632-7.32643-20.41858-7.2108-30.49055A54.085,54.085,0,0,1,67.50412,3.21379c-7.572,1.48845-16.32906,4.72535-12.34071,11.56042,6.6039,11.32924,41.63193,28.06287,21.80587,24.9849-19.82615-3.09234-39.40658-12.62973-40.9528,6.9507-1.54622,19.566,30.216,10.04312,23.48209,26.27111-6.7339,16.21344-6.7339,27.03686,6.14147,24.46471,12.87537-2.58669,32.70152-30.12937,24.97053-36.83434-7.71662-6.6906-2.31214-14.16158,6.18477-7.97672C101.26059,55.88594,106.30381,57.56216,110.26323,57.53332Z"/><line class="cls-1" x1="22.37519" y1="98.4716" x2="12.12978" y2="108.71701"/><line class="cls-1" x1="108.71702" y1="12.12977" x2="98.45716" y2="22.38963"/><path class="cls-1" d="M110.2777,56.146c0,.46242,0,.92485-.01447,1.38728-3.95942.02884-9.00264-1.64738-13.46789-4.89875-8.49691-6.18486-13.90139,1.28612-6.18477,7.97672,7.731,6.705-12.09516,34.24765-24.97053,36.83434-12.87537,2.57215-12.87537-8.25127-6.14147-24.46471,6.7339-16.228-25.02831-6.70506-23.48209-26.27111,1.54622-19.58043,21.12665-10.043,40.9528-6.9507,19.82606,3.078-15.202-13.65566-21.80587-24.9849-3.98835-6.83507,4.76866-10.072,12.34071-11.56042h.01447A54.16719,54.16719,0,0,1,110.2777,56.146Z"/></g></g></svg>