<svg width="45" height="60" viewBox="0 0 45 60" fill="none" xmlns="http://www.w3.org/2000/svg">
<path d="M34.3999 48.8904H10.046C9.80376 48.8904 9.57147 48.7943 9.4002 48.6232C9.22892 48.4522 9.1327 48.2202 9.1327 47.9783V40.1339C6.30516 38.0724 4.00447 35.3737 2.41759 32.2572C0.830712 29.1406 0.00241224 25.6941 0 22.1977C0 9.95686 9.96926 0 22.2229 0C34.4766 0 44.4458 9.95686 44.4458 22.1953C44.4438 25.6921 43.6157 29.1391 42.0288 32.2561C40.4419 35.3731 38.141 38.0722 35.3131 40.1339V47.9783C35.3131 48.2202 35.2169 48.4522 35.0456 48.6232C34.8744 48.7943 34.6421 48.8904 34.3999 48.8904ZM10.9592 47.0661H33.4866V39.662C33.4866 39.5151 33.5222 39.3704 33.5902 39.2402C33.6583 39.11 33.7568 38.9981 33.8775 38.9141C36.5741 37.0356 38.7769 34.5348 40.2988 31.6242C41.8208 28.7135 42.6168 25.4789 42.6193 22.1953C42.6193 10.9626 33.4695 1.82427 22.2229 1.82427C10.9763 1.82427 1.82654 10.9626 1.82654 22.1953C1.82846 25.4796 2.6242 28.7148 4.14613 31.6262C5.66807 34.5375 7.87122 37.0389 10.5684 38.9177C10.689 39.0018 10.7875 39.1136 10.8556 39.2439C10.9236 39.3741 10.9592 39.5188 10.9592 39.6657V47.0661Z" fill="#707070"/>
<path d="M33.8445 52.5943H11.342C10.8881 52.5938 10.4529 52.4198 10.1319 52.1105C9.81095 51.8012 9.6304 51.3818 9.62988 50.9444V49.0588C9.6304 48.6214 9.81095 48.202 10.1319 47.8927C10.4529 47.5834 10.8881 47.4094 11.342 47.4089H33.8445C34.2984 47.4094 34.7336 47.5834 35.0546 47.8927C35.3755 48.202 35.5561 48.6214 35.5566 49.0588V50.9444C35.5561 51.3818 35.3755 51.8012 35.0546 52.1105C34.7336 52.4198 34.2984 52.5938 33.8445 52.5943ZM11.342 48.8231C11.2772 48.8231 11.2149 48.848 11.1691 48.8922C11.1232 48.9364 11.0974 48.9963 11.0974 49.0588V50.9444C11.0974 51.0069 11.1232 51.0669 11.1691 51.1111C11.2149 51.1553 11.2772 51.1801 11.342 51.1801H33.8445C33.9093 51.1801 33.9716 51.1553 34.0174 51.1111C34.0633 51.0669 34.0891 51.0069 34.0891 50.9444V49.0588C34.0891 48.9963 34.0633 48.9364 34.0174 48.8922C33.9716 48.848 33.9093 48.8231 33.8445 48.8231H11.342Z" fill="#707070"/>
<path d="M27.1947 60H17.4532C16.5654 59.9987 15.7144 59.6455 15.0867 59.0177C14.459 58.39 14.1058 57.539 14.1045 56.6513V52.9982C14.1045 52.756 14.2007 52.5237 14.372 52.3524C14.5433 52.1812 14.7755 52.085 15.0178 52.085H29.6301C29.8723 52.085 30.1046 52.1812 30.2759 52.3524C30.4471 52.5237 30.5434 52.756 30.5434 52.9982V56.6513C30.5421 57.539 30.1889 58.39 29.5611 59.0177C28.9334 59.6455 28.0824 59.9987 27.1947 60ZM15.931 53.9115V56.6513C15.9317 57.0548 16.0922 57.4416 16.3776 57.7269C16.6629 58.0122 17.0497 58.1728 17.4532 58.1734H27.1947C27.5982 58.1728 27.985 58.0122 28.2703 57.7269C28.5556 57.4416 28.7162 57.0548 28.7168 56.6513V53.9115H15.931Z" fill="#707070"/>
<path d="M27.1949 45.8661H17.4533C17.2111 45.8661 16.9788 45.7699 16.8075 45.5986C16.6363 45.4273 16.54 45.195 16.54 44.9528V20.5989C16.5399 20.479 16.5636 20.3603 16.6095 20.2495C16.6555 20.1387 16.7229 20.0382 16.8079 19.9536L21.6787 15.0828C21.7634 14.9979 21.864 14.9307 21.9748 14.8847C22.0855 14.8388 22.2042 14.8152 22.3241 14.8152C22.444 14.8152 22.5627 14.8388 22.6734 14.8847C22.7842 14.9307 22.8848 14.9979 22.9695 15.0828L27.8402 19.9536C27.9252 20.0382 27.9927 20.1387 28.0386 20.2495C28.0846 20.3603 28.1082 20.479 28.1081 20.5989V44.9528C28.1081 45.195 28.0119 45.4273 27.8406 45.5986C27.6694 45.7699 27.4371 45.8661 27.1949 45.8661ZM18.3666 44.0395H26.2816V20.9776L22.3241 17.0201L18.3666 20.9776V44.0395Z" fill="#707070"/>
</svg>
