<svg width="45" height="60" viewBox="0 0 45 60" fill="none" xmlns="http://www.w3.org/2000/svg">
<path d="M34.3999 48.8904H10.046C9.80376 48.8904 9.57147 48.7943 9.4002 48.6232C9.22892 48.4522 9.1327 48.2202 9.1327 47.9783V40.1339C6.30516 38.0724 4.00447 35.3737 2.41759 32.2572C0.830712 29.1406 0.00241224 25.6941 0 22.1977C0 9.95686 9.96926 0 22.2229 0C34.4766 0 44.4458 9.95686 44.4458 22.1953C44.4438 25.6921 43.6157 29.1391 42.0288 32.2561C40.4419 35.3731 38.141 38.0722 35.3131 40.1339V47.9783C35.3131 48.2202 35.2169 48.4522 35.0456 48.6232C34.8744 48.7943 34.6421 48.8904 34.3999 48.8904ZM10.9592 47.0661H33.4866V39.662C33.4866 39.5151 33.5222 39.3704 33.5902 39.2402C33.6583 39.11 33.7568 38.9981 33.8775 38.9141C36.5741 37.0356 38.7769 34.5348 40.2988 31.6242C41.8208 28.7135 42.6168 25.4789 42.6193 22.1953C42.6193 10.9626 33.4695 1.82427 22.2229 1.82427C10.9763 1.82427 1.82654 10.9626 1.82654 22.1953C1.82846 25.4796 2.6242 28.7148 4.14613 31.6262C5.66807 34.5375 7.87122 37.0389 10.5684 38.9177C10.689 39.0018 10.7875 39.1136 10.8556 39.2439C10.9236 39.3741 10.9592 39.5188 10.9592 39.6657V47.0661Z" fill="#3498DB"/>
<path d="M33.8445 52.594H11.342C10.8881 52.5935 10.4529 52.4196 10.1319 52.1102C9.81095 51.8009 9.6304 51.3816 9.62988 50.9442V49.0586C9.6304 48.6212 9.81095 48.2018 10.1319 47.8925C10.4529 47.5832 10.8881 47.4092 11.342 47.4087H33.8445C34.2984 47.4092 34.7336 47.5832 35.0546 47.8925C35.3755 48.2018 35.5561 48.6212 35.5566 49.0586V50.9442C35.5561 51.3816 35.3755 51.8009 35.0546 52.1102C34.7336 52.4196 34.2984 52.5935 33.8445 52.594ZM11.342 48.8229C11.2772 48.8229 11.2149 48.8477 11.1691 48.8919C11.1232 48.9361 11.0974 48.9961 11.0974 49.0586V50.9442C11.0974 51.0067 11.1232 51.0666 11.1691 51.1108C11.2149 51.155 11.2772 51.1799 11.342 51.1799H33.8445C33.9093 51.1799 33.9716 51.155 34.0174 51.1108C34.0633 51.0666 34.0891 51.0067 34.0891 50.9442V49.0586C34.0891 48.9961 34.0633 48.9361 34.0174 48.8919C33.9716 48.8477 33.9093 48.8229 33.8445 48.8229H11.342Z" fill="#3498DB"/>
<path d="M27.1949 60H17.4534C16.5657 59.9987 15.7147 59.6455 15.087 59.0177C14.4592 58.39 14.106 57.539 14.1047 56.6513V52.9982C14.1047 52.756 14.201 52.5237 14.3722 52.3524C14.5435 52.1812 14.7758 52.085 15.018 52.085H29.6303C29.8725 52.085 30.1048 52.1812 30.2761 52.3524C30.4474 52.5237 30.5436 52.756 30.5436 52.9982V56.6513C30.5423 57.539 30.1891 58.39 29.5614 59.0177C28.9337 59.6455 28.0827 59.9987 27.1949 60ZM15.9313 53.9115V56.6513C15.9319 57.0548 16.0925 57.4416 16.3778 57.7269C16.6631 58.0122 17.0499 58.1728 17.4534 58.1734H27.1949C27.5984 58.1728 27.9852 58.0122 28.2705 57.7269C28.5558 57.4416 28.7164 57.0548 28.7171 56.6513V53.9115H15.9313Z" fill="#3498DB"/>
<path d="M27.1949 45.8663H17.4533C17.2111 45.8663 16.9788 45.7701 16.8075 45.5988C16.6363 45.4276 16.54 45.1953 16.54 44.9531V20.5992C16.5399 20.4793 16.5636 20.3605 16.6095 20.2497C16.6555 20.139 16.7229 20.0384 16.8079 19.9538L21.6787 15.083C21.7634 14.9982 21.864 14.9309 21.9748 14.885C22.0855 14.8391 22.2042 14.8154 22.3241 14.8154C22.444 14.8154 22.5627 14.8391 22.6734 14.885C22.7842 14.9309 22.8848 14.9982 22.9695 15.083L27.8402 19.9538C27.9252 20.0384 27.9927 20.139 28.0386 20.2497C28.0846 20.3605 28.1082 20.4793 28.1081 20.5992V44.9531C28.1081 45.1953 28.0119 45.4276 27.8406 45.5988C27.6694 45.7701 27.4371 45.8663 27.1949 45.8663ZM18.3666 44.0398H26.2816V20.9779L22.3241 17.0204L18.3666 20.9779V44.0398Z" fill="#3498DB"/>
</svg>
