<svg width="55" height="54" viewBox="0 0 55 54" fill="none" xmlns="http://www.w3.org/2000/svg">
<path fill-rule="evenodd" clip-rule="evenodd" d="M10.1942 23.6868H6.20335V25.8347H10.1942V23.6868ZM10.1942 26.7168H6.20335V28.8647H10.1942V26.7168ZM35.2506 23.0164H27.9827V25.1641H30.1444C30.1663 25.1641 30.1877 25.1641 30.2055 25.1641H33.3823H33.3932H35.2507V23.0164H35.2506ZM41.1027 26.0463H35.7024H35.6918H33.8342V28.1939H38.3342C38.3557 28.1905 38.3771 28.1905 38.3991 28.1939H41.1027V26.0463ZM5.32104 29.3163V29.3056V26.2864V26.2756V26.2651V23.2603V23.2458V23.2351V20.2304V20.2196V20.2052V17.2005V17.1898V17.1789V14.1705V14.1598V14.1491V11.1407V11.1299V11.1192V8.10004V8.08923V5.69405C5.32104 5.4538 5.51853 5.25301 5.7622 5.25301H48.1771C48.4206 5.25301 48.6178 5.4538 48.6178 5.69405V32.8161C48.6178 33.0597 48.4206 33.2571 48.1771 33.2571H5.7622C5.51853 33.2571 5.32104 33.0597 5.32104 32.8161V29.3163ZM49.8049 4.09132C49.4033 3.69328 48.8512 3.44244 48.2452 3.44244H5.79427C5.18863 3.44244 4.6361 3.68975 4.23817 4.09132C3.83661 4.49288 3.58918 5.04506 3.58918 5.65105V36.2152C3.58918 36.821 3.83649 37.3733 4.23817 37.7749C4.6361 38.1728 5.18851 38.4238 5.79427 38.4238H48.2451C48.8511 38.4238 49.4031 38.1727 49.8048 37.7749C50.2028 37.3733 50.4501 36.821 50.4501 36.2152V5.65105C50.4501 5.05576 50.2133 4.51074 49.8262 4.1127L49.8049 4.09132ZM32.1166 39.306H21.9261L19.8897 47.0438H34.1534L32.1166 39.306ZM41.0919 47.9222H19.3194H19.3088H12.948V49.1415H41.0917V47.9222H41.0919ZM19.7607 16.2143H27.9142C28.1546 16.2143 28.3555 16.4116 28.3555 16.6553V19.6852C28.3555 19.9291 28.1546 20.1263 27.9142 20.1263H22.4247V20.5638C22.4247 20.8828 22.0841 21.1089 21.7902 20.9618C21.6504 20.9046 21.5427 20.7324 21.5427 20.5638V20.1263H19.7607C19.5203 20.1263 19.3196 19.9291 19.3196 19.6852V16.6553C19.3194 16.4116 19.5203 16.2143 19.7607 16.2143ZM36.1324 25.1641H41.5434C41.7874 25.1641 41.9845 25.3615 41.9845 25.6054V28.6351C41.9845 28.8789 41.7874 29.0763 41.5434 29.0763H38.8077V29.5137C38.8077 29.8329 38.4671 30.0587 38.1732 29.9116C38.0335 29.8543 37.9259 29.6821 37.9259 29.5137V29.0763H33.3933C33.1496 29.0763 32.9525 28.8789 32.9525 28.6351V26.0463H30.6147V26.4872C30.6147 26.8064 30.2741 27.0287 29.9835 26.8816C29.8437 26.8279 29.7323 26.6522 29.7323 26.4872V26.0463H27.5417C27.2981 26.0463 27.1006 25.8489 27.1006 25.6054V22.5754C27.1006 22.3315 27.2981 22.1343 27.5417 22.1343H35.692C35.9357 22.1343 36.1327 22.3315 36.1327 22.5754V25.1641H36.1324ZM15.2033 7.659H23.3568C23.5972 7.659 23.798 7.85978 23.798 8.10004V11.1299C23.798 11.3738 23.5972 11.5709 23.3568 11.5709H22.4246V12.012C22.4246 12.3312 22.084 12.5534 21.79 12.4064C21.6502 12.3527 21.5426 12.177 21.5426 12.012V11.5709H15.2033C14.963 11.5709 14.7622 11.3738 14.7622 11.1299V8.10004C14.7622 7.85978 14.963 7.659 15.2033 7.659ZM6.20335 7.659H10.6349C10.879 7.659 11.0761 7.85978 11.0761 8.10004V11.1192V11.1299V11.1407V14.1491V14.1598V14.1705V17.1789V17.1898V17.2005V20.2052V20.2196V20.2304V23.2351V23.2458V23.2603V26.2651V26.2756V26.2864V29.3056C11.0761 29.5495 10.8789 29.7465 10.6349 29.7465H6.20335V32.3784H47.7359V6.1351H6.20335V7.659ZM10.1942 8.54108H6.20335V10.689H10.1942V8.54108ZM10.1942 11.5709H6.20335V13.7187H10.1942V11.5709ZM10.1942 14.6008H6.20335V16.7486H10.1942V14.6008ZM10.1942 17.6307H6.20335V19.7783H10.1942V17.6307ZM27.4735 17.0964H20.2015V19.2442H21.9551C21.9729 19.2407 21.9947 19.2407 22.0161 19.2442H27.4735V17.0964ZM22.9161 8.54108H15.6441V10.689H21.9551C21.9729 10.689 21.9947 10.689 22.0161 10.689H22.9163V8.54108H22.9161ZM21.5427 15.5368C21.5427 15.7017 21.6504 15.8772 21.7902 15.9312C22.0841 16.0781 22.4247 15.8558 22.4247 15.5368V14.6547C22.4247 14.4897 22.3171 14.3141 22.1774 14.2603C21.8834 14.1133 21.5429 14.3356 21.5429 14.6547V15.5368H21.5427ZM21.5427 24.0885C21.5427 24.2571 21.6504 24.4291 21.7902 24.4866C22.0841 24.6335 22.4247 24.4076 22.4247 24.0885V23.21C22.4247 23.0415 22.3171 22.8694 22.1774 22.812C21.8834 22.665 21.5429 22.8908 21.5429 23.21V24.0885H21.5427ZM21.5427 27.6132C21.5427 27.7818 21.6504 27.9538 21.7902 28.0111C22.0841 28.1582 22.4247 27.9324 22.4247 27.6132V26.7311C22.4247 26.5662 22.3171 26.3907 22.1774 26.3367C21.8834 26.1899 21.5429 26.412 21.5429 26.7311V27.6132H21.5427ZM13.3529 13.5538C13.3529 13.7224 13.4606 13.8944 13.6002 13.9519C13.8942 14.0989 14.2315 13.8729 14.2315 13.5538V12.6753C14.2315 12.5068 14.1239 12.3348 13.9842 12.2774C13.6902 12.1303 13.3529 12.3561 13.3529 12.6753V13.5538ZM13.3529 17.0785C13.3529 17.2471 13.4606 17.4192 13.6002 17.4766C13.8942 17.6235 14.2315 17.3977 14.2315 17.0785V16.2C14.2315 16.0314 14.1239 15.8594 13.9842 15.802C13.6902 15.6551 13.3529 15.8809 13.3529 16.2V17.0785ZM13.3529 20.6033C13.3529 20.7718 13.4606 20.9438 13.6002 21.0012C13.8942 21.1483 14.2315 20.9225 14.2315 20.6033V19.7211C14.2315 19.5563 14.1239 19.3842 13.9842 19.3268C13.6902 19.1798 13.3529 19.4057 13.3529 19.7211V20.6033ZM13.3529 24.128C13.3529 24.2928 13.4606 24.4686 13.6002 24.5223C13.8942 24.6694 14.2315 24.447 14.2315 24.128V23.2458C14.2315 23.0809 14.1239 22.9053 13.9842 22.8515C13.6902 22.7046 13.3529 22.9267 13.3529 23.2458V24.128ZM13.3529 27.6527C13.3529 27.8176 13.4606 27.9932 13.6002 28.0471C13.8942 28.1939 14.2315 27.9718 14.2315 27.6527V26.7705C14.2315 26.6057 14.1239 26.43 13.9842 26.3762C13.6902 26.2291 13.3529 26.4515 13.3529 26.7705V27.6527ZM14.2315 9.1506C14.2315 8.98201 14.1239 8.81001 13.9842 8.75256C13.6902 8.60911 13.3529 8.83139 13.3529 9.1506V10.0328C13.3529 10.1976 13.4606 10.3733 13.6002 10.4271C13.8942 10.5741 14.2315 10.3518 14.2315 10.0328V9.1506ZM37.9257 13.5538C37.9257 13.7224 38.0334 13.8944 38.1731 13.9519C38.467 14.0989 38.8076 13.8729 38.8076 13.5538V12.6753C38.8076 12.5068 38.6962 12.3348 38.5602 12.2774C38.2662 12.1303 37.9257 12.3561 37.9257 12.6753V13.5538ZM37.9257 17.0785C37.9257 17.2471 38.0334 17.4192 38.1731 17.4766C38.467 17.6235 38.8076 17.3977 38.8076 17.0785V16.2C38.8076 16.0314 38.6962 15.8594 38.5602 15.802C38.2662 15.6551 37.9257 15.8809 37.9257 16.2V17.0785ZM37.9257 20.6033C37.9257 20.7683 38.0334 20.9438 38.1731 20.9977C38.467 21.1446 38.8076 20.9224 38.8076 20.6033V19.7211C38.8076 19.5563 38.6962 19.3842 38.5602 19.3268C38.2662 19.1798 37.9257 19.4057 37.9257 19.7211V20.6033ZM37.9257 24.128C37.9257 24.2928 38.0334 24.4686 38.1731 24.5223C38.467 24.6694 38.8076 24.447 38.8076 24.128V23.2458C38.8076 23.0809 38.6962 22.9053 38.5602 22.8515C38.2662 22.7046 37.9257 22.9267 37.9257 23.2458V24.128ZM38.8076 9.1506C38.8076 8.98201 38.6962 8.81001 38.5602 8.75256C38.2662 8.60911 37.9257 8.83139 37.9257 9.1506V10.0328C37.9257 10.1976 38.0334 10.3733 38.1731 10.4271C38.467 10.5741 38.8076 10.3518 38.8076 10.0328V9.1506ZM29.7321 13.5538C29.7321 13.7224 29.8433 13.8944 29.9833 13.9519C30.2739 14.0989 30.6145 13.8729 30.6145 13.5538V12.6753C30.6145 12.5068 30.5069 12.3348 30.3671 12.2774C30.0731 12.1303 29.7322 12.3561 29.7322 12.6753L29.7321 13.5538ZM29.7321 17.0785C29.7321 17.2471 29.8433 17.4192 29.9833 17.4766C30.2739 17.6235 30.6145 17.3977 30.6145 17.0785V16.2C30.6145 16.0314 30.5069 15.8594 30.3671 15.802C30.0731 15.6551 29.7322 15.8809 29.7322 16.2L29.7321 17.0785ZM29.7321 20.6033C29.7321 20.7718 29.8433 20.9438 29.9833 21.0012C30.2739 21.1483 30.6145 20.9225 30.6145 20.6033V19.7211C30.6145 19.5563 30.5069 19.3842 30.3671 19.3268C30.0731 19.1798 29.7322 19.4057 29.7322 19.7211L29.7321 20.6033ZM29.7321 29.5279C29.7321 29.6966 29.8433 29.8686 29.9833 29.926C30.2739 30.0695 30.6145 29.8471 30.6145 29.5279V29.13C30.6145 28.9612 30.5069 28.7894 30.3671 28.7318C30.0731 28.5849 29.7322 28.8109 29.7322 29.13L29.7321 29.5279ZM30.6145 9.1506C30.6145 8.98201 30.5069 8.81001 30.3671 8.75256C30.0731 8.60911 29.7322 8.83139 29.7322 9.1506V10.0328C29.7322 10.1976 29.8434 10.3733 29.9834 10.4271C30.274 10.5741 30.6146 10.3518 30.6146 10.0328V9.1506H30.6145ZM2.89367 52.0172C2.65329 52.0172 2.45251 51.8198 2.45251 51.576C2.45251 51.3323 2.65329 51.135 2.89367 51.135H35.5053C35.7453 51.135 35.9461 51.3323 35.9461 51.576C35.9461 51.8198 35.7453 52.0172 35.5053 52.0172H2.89367ZM21.9909 54C21.7473 54 21.5498 53.8027 21.5498 53.559C21.5498 53.3152 21.7473 53.1179 21.9909 53.1179H44.5553C44.7995 53.1179 44.9966 53.3152 44.9966 53.559C44.9966 53.8027 44.7995 54 44.5553 54H21.9909ZM46.8646 54C46.6205 54 46.4234 53.8027 46.4234 53.559C46.4234 53.3152 46.6205 53.1179 46.8646 53.1179H49.6865C49.9265 53.1179 50.1273 53.3152 50.1273 53.559C50.1273 53.8027 49.9265 54 49.6865 54H46.8646ZM1.61014 53.9391C1.366 53.9391 1.16898 53.7419 1.16898 53.498C1.16898 53.2578 1.36612 53.0571 1.61014 53.0571H12.3023C12.5464 53.0571 12.7434 53.2578 12.7434 53.498C12.7434 53.7419 12.5463 53.9391 12.3023 53.9391H1.61014ZM0.881964 16.487C0.881964 16.7308 0.681181 16.928 0.441158 16.928C0.197023 16.928 0 16.7308 0 16.487V3.3884C0 2.4598 0.380184 1.61355 0.993223 0.996865C1.61002 0.380183 2.45615 0.000117421 3.3884 0.000117421H10.9149C11.1585 0.000117421 11.3557 0.197376 11.3557 0.441041C11.3557 0.684941 11.1585 0.882199 10.9149 0.882199H3.3884C2.69653 0.882199 2.06904 1.16546 1.61707 1.61731C1.16181 2.07268 0.881964 2.70017 0.881964 3.38852V16.487ZM50.6546 0.882082C50.4106 0.882082 50.2134 0.684823 50.2134 0.440923C50.2134 0.197258 50.4106 0 50.6546 0C51.587 0 52.433 0.383708 53.046 0.996747C53.6592 1.61002 54.043 2.45615 54.043 3.38828V8.92456C54.043 9.16834 53.8421 9.3656 53.6017 9.3656C53.3581 9.3656 53.161 9.16834 53.161 8.92456V3.3884C53.161 2.70005 52.8778 2.07256 52.4222 1.62071C51.9703 1.16546 51.3433 0.882082 50.6546 0.882082ZM10.1942 20.6607H6.20335V22.8083H10.1942V20.6607Z" fill="#3498DB"/>
</svg>
