<svg width="65" height="65" viewBox="0 0 65 65" fill="none" xmlns="http://www.w3.org/2000/svg">
<path d="M32.4009 63.4009C49.5217 63.4009 63.4009 49.5217 63.4009 32.4009C63.4009 15.2801 49.5217 1.40088 32.4009 1.40088C15.2801 1.40088 1.40088 15.2801 1.40088 32.4009C1.40088 49.5217 15.2801 63.4009 32.4009 63.4009Z" stroke="#3498DB" stroke-width="2" stroke-miterlimit="10" stroke-linecap="round" stroke-linejoin="round"/>
<path d="M42.453 22.2186C42.453 22.2186 40.5234 14.2264 31.1492 14.422C22.7137 14.6045 22.0097 21.4233 21.9966 22.2186C21.9836 22.9487 20.8232 30.7323 32.2183 31.7623C44.0827 32.8314 42.4399 42.8705 42.4399 42.8705C42.4399 42.8705 41.8663 51.0061 32.2183 50.3933C22.2053 49.7675 20.8232 41.306 20.8232 41.306" stroke="#3498DB" stroke-width="2" stroke-miterlimit="10" stroke-linecap="round" stroke-linejoin="round"/>
<path d="M32.1401 14.3957V7.64209" stroke="#3498DB" stroke-width="2" stroke-miterlimit="10" stroke-linecap="round" stroke-linejoin="round"/>
<path d="M32.1401 57.1598V50.4062" stroke="#3498DB" stroke-width="2" stroke-miterlimit="10" stroke-linecap="round" stroke-linejoin="round"/>
</svg>
