<svg width="43" height="52" viewBox="0 0 43 52" fill="none" xmlns="http://www.w3.org/2000/svg">
<path d="M22.4929 1.59593C22.4929 0.715843 21.9194 0 21.2142 0C20.5092 0 19.9355 0.715964 19.9355 1.59593V4.32631H22.4929V1.59593Z" fill="#3498DB"/>
<path d="M3.47838 9.73196H5.64259H37.6513H38.9496C39.8926 9.73196 40.6598 8.77423 40.6598 7.5969C40.6598 6.41934 39.8926 5.46136 38.9496 5.46136H22.9443H19.4834H3.47838C2.53575 5.46136 1.7688 6.41934 1.7688 7.5969C1.7688 8.77411 2.53575 9.73196 3.47838 9.73196Z" fill="#3498DB"/>
<path d="M41.9767 50.3773H36.1348L24.3443 34.5828H37.1994V10.867H6.09421V34.5828H18.9187L5.44828 50.3773H0.451838C0.202392 50.3773 0 50.6313 0 50.9447C0 51.2583 0.202392 51.5123 0.451838 51.5123H41.9767C42.2263 51.5123 42.4286 51.2583 42.4286 50.9447C42.4286 50.6313 42.2263 50.3773 41.9767 50.3773ZM14.9801 12.6135H16.7077V14.7733H14.9801V12.6135ZM11.5198 12.6135H13.2474V14.7733H11.5198V12.6135ZM8.05951 12.6135H9.78721V14.7733H8.05951V12.6135ZM9.96791 29.5087C9.71846 29.5087 9.51607 29.2547 9.51607 28.9411C9.51607 28.6278 9.71827 28.3736 9.96771 28.3736C9.99548 28.3736 12.7953 28.3547 16.9172 27.0287C18.7684 26.4331 21.0795 25.5053 23.6258 24.0736C21.0795 22.6419 18.7684 21.7142 16.9172 21.1187C12.7953 19.7926 9.99548 19.7738 9.96771 19.7738C9.71827 19.7736 9.51607 19.5193 9.51626 19.206C9.51636 18.8928 9.71856 18.6388 9.96791 18.6388C10.0851 18.6388 12.8847 18.6543 17.1085 20.0083C19.1788 20.6721 21.8102 21.7397 24.704 23.4449C26.8699 22.136 29.1766 20.461 31.497 18.3213L29.7224 17.5817C29.4857 17.4831 29.3574 17.1618 29.4359 16.8644C29.5145 16.5668 29.7705 16.4057 30.007 16.5044L32.6027 17.5863C32.6029 17.5865 32.603 17.5866 32.6032 17.5867C32.6088 17.589 32.614 17.5929 32.6195 17.5954C32.6335 17.6021 32.6469 17.6099 32.6602 17.6183C32.6685 17.6234 32.6773 17.6269 32.6852 17.6327C32.6902 17.6361 32.6941 17.6408 32.6989 17.6446C32.7115 17.6545 32.7231 17.6654 32.7348 17.6768C32.7421 17.684 32.7502 17.6894 32.7574 17.6972C32.7615 17.7018 32.7648 17.7072 32.7687 17.7122C32.7793 17.7245 32.7888 17.7381 32.7984 17.7518C32.805 17.7614 32.8127 17.7696 32.819 17.7795C32.819 17.7798 32.8192 17.7799 32.8192 17.7799C32.8216 17.7838 32.8229 17.7881 32.8251 17.792C32.8254 17.7922 32.8256 17.7928 32.8258 17.7933C32.8345 17.8085 32.8419 17.8243 32.8493 17.8406C32.8546 17.8518 32.8608 17.8623 32.8654 17.874C32.8676 17.8794 32.8691 17.885 32.871 17.8906C32.8767 17.9061 32.881 17.9224 32.8854 17.9386C32.8891 17.9514 32.8935 17.9639 32.8964 17.9771C32.8977 17.9836 32.8984 17.9902 32.8997 17.9967C32.9025 18.0117 32.9039 18.0271 32.9057 18.0425C32.9076 18.0571 32.9102 18.0713 32.911 18.0861C32.9113 18.0936 32.9109 18.1011 32.9111 18.1086C32.9112 18.1141 32.9124 18.1193 32.9124 18.1248V21.3693C32.9124 21.6827 32.7101 21.9367 32.4606 21.9367C32.211 21.9367 32.0087 21.6827 32.0087 21.3693V19.2572C29.8749 21.2222 27.7522 22.8039 25.7357 24.0734C27.7522 25.343 29.8749 26.9247 32.0087 28.8897V26.7773C32.0087 26.4639 32.211 26.2098 32.4606 26.2098C32.7101 26.2098 32.9124 26.4639 32.9124 26.7773V30.0223C32.9124 30.0278 32.9112 30.033 32.9111 30.0386C32.9109 30.0461 32.9113 30.0535 32.911 30.0611C32.9102 30.0759 32.9076 30.0901 32.9057 30.1047C32.9039 30.1201 32.9026 30.1355 32.8997 30.1504C32.8984 30.1569 32.8977 30.1635 32.8964 30.1699C32.8935 30.1832 32.8889 30.1958 32.8853 30.2089C32.8808 30.225 32.8766 30.2411 32.871 30.2565C32.8691 30.262 32.8677 30.2677 32.8655 30.2731C32.8608 30.2851 32.8546 30.2959 32.8492 30.3074C32.8417 30.3231 32.8345 30.3388 32.826 30.3535C32.8247 30.3561 32.8237 30.3589 32.8222 30.3612C32.821 30.3631 32.8203 30.3653 32.8193 30.3672L32.8191 30.3675C32.8177 30.3699 32.8159 30.3718 32.8145 30.3742C32.804 30.391 32.793 30.4069 32.7814 30.4216C32.7794 30.4241 32.7774 30.4261 32.7755 30.4284C32.7723 30.4323 32.7689 30.436 32.7657 30.4398C32.7613 30.4446 32.7574 30.4495 32.7528 30.4542C32.742 30.4658 32.7307 30.4765 32.7193 30.4866C32.7159 30.4897 32.7127 30.4928 32.7092 30.4956C32.7034 30.5005 32.6974 30.5051 32.6913 30.5095C32.6871 30.5127 32.6828 30.5155 32.6785 30.5184C32.6668 30.5265 32.655 30.534 32.6429 30.5408C32.638 30.5435 32.633 30.5461 32.6281 30.5485C32.6203 30.5523 32.6128 30.5564 32.6051 30.5597C32.6041 30.5602 32.6035 30.5608 32.6027 30.5611L30.007 31.6425C29.9597 31.6622 29.9118 31.6715 29.8646 31.6715C29.6753 31.6715 29.4987 31.5207 29.4359 31.2826C29.3574 30.9851 29.4857 30.6638 29.7224 30.5651L31.4969 29.8258C29.1765 27.686 26.8699 26.0111 24.704 24.7021C21.8101 26.4072 19.1787 27.4749 17.1085 28.1387C12.8847 29.4932 10.0852 29.5087 9.96791 29.5087ZM21.1951 50.3773H6.77255L19.0323 36.0023V39.5633C19.0323 41.1744 19.9681 42.5163 21.1951 42.785V50.3773ZM22.0987 50.3773V42.785C23.3257 42.5163 24.2614 41.1744 24.2614 39.5633V36.131L34.896 50.3771H22.0987V50.3773Z" fill="#3498DB"/>
</svg>
