<svg width="67" height="62" viewBox="0 0 67 62" fill="none" xmlns="http://www.w3.org/2000/svg">
<path d="M58.2703 9.2155V1.68134C58.2703 1.41639 58.1172 1.176 57.8775 1.0635C57.6391 0.952915 57.3527 0.988232 57.1518 1.158C47.8267 8.95533 33.39 10.5053 32.9938 10.5462L16.8476 11.6225C14.6711 11.7676 12.4979 12.1232 10.3893 12.6791C8.87547 13.0778 7.81842 14.4399 7.81801 15.9908H7.13609C3.75251 15.9908 1 19.1907 1 23.1242V27.9626C1 31.8963 3.75251 35.096 7.13609 35.096H7.81801C7.81829 36.647 8.87547 38.009 10.3893 38.4077C11.6266 38.734 12.8874 38.9824 14.1569 39.1686C14.8418 39.7889 17.3476 42.2916 18.3597 46.546C19.3105 50.5415 18.6073 54.5782 16.3802 57.914C15.9727 58.5246 15.9361 59.2762 16.283 59.924C16.6379 60.5878 17.3322 61 18.0953 61H30.2762C30.8814 61 31.452 60.7411 31.8415 60.2889C32.2184 59.8515 32.3861 59.2748 32.3016 58.7063C31.8578 55.7359 30.5491 47.0002 27.6264 40.1835L32.9937 40.5415C33.3896 40.5824 47.8264 42.1317 57.1516 49.9297C57.2754 50.0343 57.4313 50.0881 57.5884 50.0881C57.687 50.0881 57.7854 50.0669 57.8773 50.0242C58.117 49.9117 58.2702 49.6713 58.2702 49.4063V41.8722C62.8388 41.5217 66.4516 37.7005 66.4516 33.0434V18.0441C66.4516 13.3872 62.839 9.56594 58.2703 9.2155ZM2.36371 27.9628V23.1244C2.36371 19.9432 4.50493 17.3545 7.13623 17.3545H7.81801V33.7327H7.13623C4.50493 33.7327 2.36371 31.144 2.36371 27.9628ZM30.9528 58.9075C30.9794 59.0859 30.9282 59.2604 30.8083 59.3989C30.6785 59.55 30.484 59.6366 30.2764 59.6366H18.0954C17.8324 59.6366 17.604 59.5033 17.4855 59.2811C17.4349 59.1866 17.3363 58.9381 17.5148 58.6718C19.9544 55.0172 20.726 50.5989 19.686 46.2306C18.9241 43.0274 17.4035 40.7617 16.2618 39.4115C16.4572 39.4278 16.6522 39.4516 16.8476 39.4646L26.0867 40.0808C28.1136 44.5486 29.7526 50.8692 30.9528 58.9075ZM32.3624 39.1323L16.9383 38.1037C14.8483 37.9644 12.7617 37.6235 10.7369 37.0896C9.82138 36.8479 9.18159 36.0283 9.18159 35.0955V15.9914C9.18159 15.0586 9.82138 14.2389 10.7369 13.9973C12.7617 13.4633 14.8482 13.1224 16.9383 12.9832L32.3624 11.9552V39.1323ZM56.9067 47.9916C48.2222 41.3978 36.5044 39.5995 33.7259 39.2541V11.8336C36.5044 11.4883 48.2222 9.68934 56.9067 3.09605V47.9916ZM65.0882 33.0436C65.0882 36.9487 62.0864 40.1625 58.2703 40.5087V10.5791C62.0864 10.9252 65.0882 14.1391 65.0882 18.0442V33.0436Z" fill="#8EBD51" stroke="#D2506F"/>
</svg>
