<svg width="55" height="42" viewBox="0 0 55 42" fill="none" xmlns="http://www.w3.org/2000/svg">
<path d="M50.0047 11.6678H48.3379C47.9113 8.46437 46.3359 5.52489 43.9046 3.3959C41.4734 1.26692 38.3516 0.0933131 35.12 0.0933131C31.8883 0.0933131 28.7666 1.26692 26.3353 3.3959C23.904 5.52489 22.3286 8.46437 21.9021 11.6678H16.9183L14.8014 5.60053C14.2338 3.96574 13.1714 2.54818 11.7616 1.5446C10.3518 0.541013 8.66451 0.00117295 6.93399 0H1.66682C1.22475 0 0.800792 0.175612 0.488202 0.488202C0.175612 0.800792 0 1.22475 0 1.66682C0 2.10889 0.175612 2.53286 0.488202 2.84545C0.800792 3.15804 1.22475 3.33365 1.66682 3.33365H6.93399C7.97134 3.32965 8.98427 3.64837 9.83243 4.24567C10.6806 4.84296 11.322 5.68925 11.6678 6.66729L13.3346 11.6678L17.4516 23.3355L21.8687 36.0367C22.4317 37.6804 23.4942 39.1071 24.9078 40.1173C26.3214 41.1274 28.0154 41.6705 29.7528 41.6706H38.3369C38.779 41.6706 39.203 41.495 39.5156 41.1824C39.8282 40.8698 40.0038 40.4458 40.0038 40.0038C40.0038 39.5617 39.8282 39.1377 39.5156 38.8251C39.203 38.5126 38.779 38.3369 38.3369 38.3369H29.7528C28.7126 38.3444 27.696 38.0273 26.8445 37.4298C25.993 36.8322 25.3491 35.984 25.0024 35.0033H42.954C45.2572 35.0099 47.4937 34.2306 49.2939 32.794C51.0941 31.3575 52.3503 29.3497 52.855 27.1026L54.8885 17.7183C55.045 16.9896 55.0367 16.2351 54.864 15.5099C54.6913 14.7848 54.3588 14.1075 53.8906 13.5275C53.4225 12.9475 52.8305 12.4795 52.1582 12.1577C51.4859 11.8359 50.7501 11.6685 50.0047 11.6678ZM28.786 5.50052C30.5506 4.09013 32.7444 3.32554 35.0033 3.33365C37.365 3.33604 39.6496 4.17414 41.4526 5.69951C43.2556 7.22489 44.4606 9.33911 44.8542 11.6678C44.9552 12.2176 45.0054 12.7756 45.0042 13.3346C45.0042 15.987 43.9506 18.5308 42.075 20.4063C40.1995 22.2819 37.6557 23.3355 35.0033 23.3355C34.6699 23.3355 34.3366 23.3355 34.0032 23.3355H33.8365L33.0198 23.2022C31.1344 22.8233 29.3983 21.909 28.0193 20.5686L27.6859 20.2019C27.5663 20.0877 27.4548 19.9652 27.3526 19.8352C27.2712 19.7481 27.1986 19.6532 27.1359 19.5518C26.9989 19.3924 26.8709 19.2255 26.7525 19.0518C26.654 18.9135 26.5649 18.7687 26.4858 18.6184C26.4025 18.4851 26.3191 18.3517 26.2525 18.2184C26.1448 18.0364 26.0501 17.847 25.9691 17.6517L25.8191 17.335C25.7358 17.1349 25.6524 16.9183 25.5857 16.7016C25.5191 16.4849 25.5024 16.5016 25.4691 16.4182C25.4357 16.3349 25.3524 15.9682 25.3024 15.7348C25.2524 15.5015 25.3024 15.5348 25.219 15.4348C25.1357 15.3348 25.219 14.9681 25.119 14.7181V14.4347C25.0126 13.6158 25.0126 12.7866 25.119 11.9678C25.4649 9.42091 26.7781 7.10497 28.786 5.50052ZM51.6715 17.0183L49.638 26.4025C49.2898 27.907 48.4399 29.2482 47.2282 30.2055C46.0164 31.1628 44.5149 31.6791 42.9707 31.6696H23.9189L20.5853 22.2688L18.0684 15.0014H21.7687V15.2348C21.8516 15.7983 21.9741 16.3553 22.1354 16.9016C22.1573 17.0141 22.1851 17.1254 22.2188 17.235C22.4109 17.8021 22.6335 18.3586 22.8855 18.9018L23.1188 19.3518C23.3997 19.9004 23.7171 20.4294 24.0689 20.9353L24.3023 21.2353C24.7001 21.7804 25.1404 22.2932 25.6191 22.7688C25.9254 23.0697 26.2482 23.3535 26.5858 23.6189C26.7859 23.7856 27.0025 23.9189 27.2026 24.0689C27.329 24.1728 27.4627 24.2674 27.6026 24.3523C27.9026 24.569 28.236 24.7523 28.5527 24.9357H28.6694C29.0194 25.119 29.3861 25.2857 29.7528 25.4357H29.8361C30.1862 25.5857 30.5529 25.7024 30.9196 25.8191H31.0529L32.0864 26.0858H32.3197C32.6531 26.1525 32.9864 26.2025 33.3198 26.2358H33.6198C34.064 26.2607 34.5092 26.2607 34.9533 26.2358C35.3863 26.2611 35.8204 26.2611 36.2534 26.2358H36.7701L37.5202 26.1191L38.1369 25.9691L38.737 25.8191L39.4037 25.5857L39.9038 25.4024C40.1387 25.3195 40.3671 25.2193 40.5872 25.1024L41.0205 24.9023L41.7039 24.519L42.054 24.3023L42.754 23.8356L43.0374 23.6189C43.271 23.4497 43.4936 23.266 43.7041 23.0688L43.9541 22.8521C44.1708 22.6521 44.3875 22.4521 44.5875 22.2354L44.7875 22.0187C44.9876 21.7854 45.2043 21.552 45.3876 21.3187L45.5376 21.1187C45.7376 20.8686 45.921 20.6019 46.1043 20.3352C46.1283 20.2885 46.1562 20.2439 46.1877 20.2019C46.7524 19.314 47.2111 18.363 47.5545 17.3683C47.5952 17.2709 47.6287 17.1706 47.6545 17.0683C47.6545 16.8683 47.7712 16.6682 47.8212 16.4516C47.8712 16.2349 47.9378 16.0348 47.9879 15.8348L48.0879 15.2681L48.1879 14.7014H49.8547C50.1176 14.6942 50.3786 14.7494 50.6161 14.8623C50.8537 14.9753 51.0611 15.1429 51.2215 15.3514C51.4415 15.5617 51.5998 15.8282 51.6791 16.122C51.7585 16.4159 51.7558 16.7258 51.6715 17.0183Z" fill="#3498DB"/>
</svg>
