<svg width="65" height="65" viewBox="0 0 65 65" fill="none" xmlns="http://www.w3.org/2000/svg">
<path d="M32.4004 63.4009C49.5212 63.4009 63.4004 49.5217 63.4004 32.4009C63.4004 15.2801 49.5212 1.40088 32.4004 1.40088C15.2796 1.40088 1.40039 15.2801 1.40039 32.4009C1.40039 49.5217 15.2796 63.4009 32.4004 63.4009Z" stroke="#664282" stroke-width="2" stroke-miterlimit="10" stroke-linecap="round" stroke-linejoin="round"/>
<path d="M42.453 22.2187C42.453 22.2187 40.5234 14.2265 31.1492 14.4221C22.7137 14.6046 22.0097 21.4234 21.9966 22.2187C21.9836 22.9488 20.8232 30.7324 32.2183 31.7624C44.0827 32.8315 42.4399 42.8706 42.4399 42.8706C42.4399 42.8706 41.8663 51.0062 32.2183 50.3934C22.2053 49.7676 20.8232 41.3061 20.8232 41.3061" stroke="#664282" stroke-width="2" stroke-miterlimit="10" stroke-linecap="round" stroke-linejoin="round"/>
<path d="M32.1406 14.3959V7.64233" stroke="#664282" stroke-width="2" stroke-miterlimit="10" stroke-linecap="round" stroke-linejoin="round"/>
<path d="M32.1406 57.16V50.4064" stroke="#664282" stroke-width="2" stroke-miterlimit="10" stroke-linecap="round" stroke-linejoin="round"/>
</svg>
