<svg width="62" height="63" viewBox="0 0 62 63" fill="none" xmlns="http://www.w3.org/2000/svg">
<path d="M31.0664 31.4473L61 1.51367" stroke="#3498DB" stroke-width="2" stroke-linecap="round" stroke-linejoin="round"/>
<path d="M52.2382 10.2755C46.9314 4.95278 39.8198 1.81631 32.3108 1.48686C24.8019 1.15741 17.4429 3.65899 11.6903 8.49648C5.9378 13.334 2.21099 20.1548 1.24754 27.609C0.284087 35.0631 2.1542 42.6074 6.48774 48.7485C10.8213 54.8896 17.3024 59.18 24.6484 60.7706C31.9943 62.3611 39.6697 61.1359 46.1554 57.3374C52.6411 53.5388 57.4644 47.4438 59.6706 40.2588C61.8769 33.0737 61.3053 25.3222 58.069 18.5384" stroke="#3498DB" stroke-width="2" stroke-linecap="round" stroke-linejoin="round"/>
<path d="M41.6366 20.8773C39.1647 18.4123 35.9074 16.8911 32.4306 16.5778C28.9537 16.2646 25.477 17.1792 22.6043 19.1627C19.7316 21.1461 17.6444 24.0732 16.7053 27.4355C15.7663 30.7978 16.0346 34.3827 17.4638 37.5677C18.8929 40.7527 21.3926 43.3365 24.5286 44.8702C27.6646 46.4039 31.2387 46.7906 34.6302 45.9633C38.0217 45.1359 41.0162 43.1467 43.0936 40.3412C45.171 37.5356 46.2 34.091 46.0019 30.6057" stroke="#3498DB" stroke-width="2" stroke-linecap="round" stroke-linejoin="round"/>
</svg>
