<svg width="62" height="63" viewBox="0 0 62 63" fill="none" xmlns="http://www.w3.org/2000/svg">
<path d="M31.0664 31.4475L61 1.51392" stroke="#3498DB" stroke-width="2" stroke-linecap="round" stroke-linejoin="round"/>
<path d="M52.2382 10.2755C46.9314 4.95278 39.8198 1.81631 32.3108 1.48686C24.8019 1.15741 17.4429 3.65899 11.6903 8.49648C5.9378 13.334 2.21099 20.1548 1.24754 27.609C0.284087 35.0631 2.1542 42.6074 6.48774 48.7485C10.8213 54.8896 17.3024 59.18 24.6484 60.7706C31.9943 62.3611 39.6697 61.1359 46.1554 57.3374C52.6411 53.5388 57.4644 47.4438 59.6706 40.2588C61.8769 33.0737 61.3053 25.3222 58.069 18.5384" stroke="#3498DB" stroke-width="2" stroke-linecap="round" stroke-linejoin="round"/>
<path d="M41.6371 20.8774C39.1652 18.4124 35.9079 16.8912 32.431 16.578C28.9542 16.2647 25.4775 17.1793 22.6047 19.1628C19.732 21.1463 17.6449 24.0734 16.7058 27.4356C15.7667 30.7979 16.0351 34.3829 17.4643 37.5678C18.8934 40.7528 21.3931 43.3366 24.5291 44.8703C27.665 46.404 31.2392 46.7908 34.6307 45.9634C38.0221 45.136 41.0167 43.1468 43.0941 40.3413C45.1715 37.5358 46.2005 34.0912 46.0024 30.6059" stroke="#3498DB" stroke-width="2" stroke-linecap="round" stroke-linejoin="round"/>
</svg>
