<svg width="51" height="66" viewBox="0 0 51 66" fill="none" xmlns="http://www.w3.org/2000/svg">
<path d="M25.8571 0.0136719C12.0721 0.0136719 0.857178 11.2287 0.857178 25.0137C0.857178 29.7398 2.19817 34.3502 4.73725 38.3592C4.77137 38.4364 4.81501 38.5103 4.86811 38.579L4.90909 38.632C5.60473 39.6992 6.41786 40.7496 7.32677 41.755L25.0176 64.6067C25.2181 64.8657 25.5272 65.0172 25.8548 65.0172C26.1824 65.0172 26.4915 64.8656 26.6919 64.6067L44.3552 41.7906C45.2814 40.7703 46.1115 39.698 46.8231 38.6027L46.8415 38.579C46.8875 38.5194 46.9263 38.4559 46.9578 38.3898C49.5093 34.3738 50.8572 29.7517 50.8572 25.0137C50.8572 11.2287 39.6422 0.0136719 25.8571 0.0136719ZM45.1038 37.3592C45.0927 37.3761 45.0823 37.3934 45.0724 37.4109C45.0716 37.4123 45.0707 37.4137 45.0698 37.415C44.4081 38.4376 43.6314 39.4408 42.761 40.3966C42.7421 40.4175 42.724 40.439 42.7067 40.4613L25.8548 62.2292L8.976 40.4265C8.95916 40.4048 8.94151 40.3836 8.92305 40.3634C8.06849 39.421 7.3075 38.4382 6.66111 37.4425C6.65772 37.4371 6.65425 37.432 6.65078 37.4268C6.6383 37.4038 6.625 37.3813 6.61075 37.3592C4.23191 33.6588 2.97452 29.3899 2.97452 25.0137C2.97452 12.3962 13.2396 2.13101 25.8571 2.13101C38.4746 2.13101 48.7398 12.3962 48.7398 25.0137C48.7398 29.3899 47.4825 33.6588 45.1038 37.3592Z" fill="white"/>
<path d="M25.8569 13.7705C19.6574 13.7705 14.6138 18.8143 14.6138 25.0137C14.6138 31.2132 19.6574 36.2568 25.8569 36.2568C32.0564 36.2568 37.1001 31.2132 37.1001 25.0137C37.1001 18.8143 32.0564 13.7705 25.8569 13.7705ZM25.8569 34.1394C20.8249 34.1394 16.7311 30.0457 16.7311 25.0137C16.7311 19.9816 20.8249 15.8879 25.8569 15.8879C30.889 15.8879 34.9828 19.9816 34.9828 25.0137C34.9828 30.0457 30.889 34.1394 25.8569 34.1394Z" fill="white"/>
</svg>
