<svg xmlns="http://www.w3.org/2000/svg" viewBox="0 0 141.12179 146.70873"><defs><style>.cls-1{fill:none;stroke:#000;stroke-linecap:round;stroke-linejoin:round;stroke-width:4px;}</style></defs><title>Personnel</title><g id="Layer_2" data-name="Layer 2"><g id="VECTOR"><path class="cls-1" d="M57.22238,36.67935H80.2013A13.75413,13.75413,0,0,1,93.95543,50.43348V66.90711a0,0,0,0,1,0,0H43.46826a0,0,0,0,1,0,0V50.43348A13.75413,13.75413,0,0,1,57.22238,36.67935Z"/><ellipse class="cls-1" cx="68.71184" cy="18.26268" rx="14.71203" ry="16.26268"/><polygon class="cls-1" points="74.084 42.04 68.712 46.838 63.34 42.04 68.712 37.242 74.084 42.04"/><path class="cls-1" d="M70.94193,47.286h-4.7371c-2.64765,4.44476-2.24292,12.04882-1.76275,19.73061h8.2626C73.18485,59.33481,73.58981,51.73075,70.94193,47.286Z"/><path class="cls-1" d="M10.95218,124.96306H25.90851a8.95218,8.95218,0,0,1,8.95218,8.95218v10.72223a0,0,0,0,1,0,0H2a0,0,0,0,1,0,0V133.91524A8.95218,8.95218,0,0,1,10.95218,124.96306Z"/><ellipse class="cls-1" cx="18.43035" cy="112.97616" rx="9.57565" ry="10.58492"/><polygon class="cls-1" points="21.927 128.452 18.43 131.575 14.934 128.452 18.43 125.329 21.927 128.452"/><path class="cls-1" d="M19.88185,131.86663H16.7986c-1.72328,2.893-1.45985,7.84224-1.14732,12.8421h5.37789C21.3417,139.70887,21.60528,134.75959,19.88185,131.86663Z"/><path class="cls-1" d="M63.08273,124.96306H78.03906a8.95218,8.95218,0,0,1,8.95218,8.95218v10.72223a0,0,0,0,1,0,0H54.13055a0,0,0,0,1,0,0V133.91524A8.95218,8.95218,0,0,1,63.08273,124.96306Z"/><ellipse class="cls-1" cx="70.56089" cy="112.97616" rx="9.57565" ry="10.58492"/><polygon class="cls-1" points="74.057 128.452 70.561 131.575 67.064 128.452 70.561 125.329 74.057 128.452"/><path class="cls-1" d="M72.01239,131.86663H68.92915c-1.72328,2.893-1.45986,7.84224-1.14733,12.8421h5.3779C73.47225,139.70887,73.73583,134.75959,72.01239,131.86663Z"/><path class="cls-1" d="M115.21327,124.96306h14.95633a8.95218,8.95218,0,0,1,8.95218,8.95218v10.72223a0,0,0,0,1,0,0H106.26109a0,0,0,0,1,0,0V133.91524A8.95218,8.95218,0,0,1,115.21327,124.96306Z"/><ellipse class="cls-1" cx="122.69144" cy="112.97616" rx="9.57565" ry="10.58492"/><polygon class="cls-1" points="126.188 128.452 122.691 131.575 119.195 128.452 122.691 125.329 126.188 128.452"/><path class="cls-1" d="M124.14294,131.86663H121.0597c-1.72329,2.893-1.45986,7.84224-1.14733,12.8421h5.37789C125.6028,139.70887,125.86638,134.75959,124.14294,131.86663Z"/><polyline class="cls-1" points="18.34 94.624 18.34 86.008 122.691 86.008 122.691 94.624"/><line class="cls-1" x1="70.51584" y1="72.22202" x2="70.51584" y2="94.62359"/></g></g></svg>