<svg xmlns="http://www.w3.org/2000/svg" viewBox="0 0 105.81281 140"><defs><style>.cls-1{fill:none;stroke:#fff;stroke-linecap:round;stroke-linejoin:round;stroke-width:4px;}</style></defs><title>Profitable</title><g id="Layer_2" data-name="Layer 2"><g id="VECTOR"><line class="cls-1" x1="27.55544" y1="138" x2="78.25736" y2="138"/><line class="cls-1" x1="52.9064" y1="71.22363" x2="52.9064" y2="138"/><path class="cls-1" d="M103.81281,77.173s-.66441,17.8483-11.15722,24.51234-26.84061-.37971-26.84061-.37971.6644-17.8483,11.15721-24.51234S103.81281,77.173,103.81281,77.173Z"/><line class="cls-1" x1="103.81281" y1="77.17303" x2="65.81498" y2="101.30566"/><path class="cls-1" d="M2,77.173s.66441,17.8483,11.15722,24.51234,26.84061-.37971,26.84061-.37971-.66441-17.8483-11.15722-24.51234S2,77.173,2,77.173Z"/><polyline class="cls-1" points="2 77.173 39.998 101.306 52.906 108.973 65.815 101.306"/><ellipse class="cls-1" cx="52.9064" cy="36.61182" rx="34.17494" ry="34.61182"/><path class="cls-1" d="M61.638,28.0659a8.73164,8.73164,0,1,0-8.7316,8.75651"/><path class="cls-1" d="M44.1748,45.57891a8.73164,8.73164,0,1,0,8.7316-8.7565"/><line class="cls-1" x1="52.9064" y1="13.69212" x2="52.9064" y2="18.88821"/><line class="cls-1" x1="52.9064" y1="54.33542" x2="52.9064" y2="59.53151"/></g></g></svg>