<svg xmlns="http://www.w3.org/2000/svg" viewBox="0 0 141.20838 136.22776"><defs><style>.cls-1{fill:none;stroke:#fff;stroke-linecap:round;stroke-linejoin:round;stroke-width:4px;}</style></defs><title>rocket</title><g id="Layer_2" data-name="Layer 2"><g id="VECTOR"><polygon class="cls-1" points="67.072 93.609 42.45 68.885 100.839 10.253 125.461 34.977 67.072 93.609"/><polygon class="cls-1" points="59.861 51.401 46.143 52.461 29.788 68.885 46.847 64.47 59.861 51.401"/><polygon class="cls-1" points="84.483 76.126 83.428 89.901 67.072 106.325 71.469 89.194 84.483 76.126"/><ellipse class="cls-1" cx="102.2464" cy="36.30178" rx="9.63787" ry="9.67795"/><ellipse class="cls-1" cx="83.07646" cy="48.13414" rx="4.41477" ry="4.43313"/><path class="cls-1" d="M130.56163,5.13145c-9.27719-9.31578-29.7222,5.12147-29.7222,5.12147l24.62194,24.72434S139.83883,14.44723,130.56163,5.13145Z"/><line class="cls-1" x1="112.62279" y1="58.46538" x2="124.58202" y2="70.47434"/><line class="cls-1" x1="54.58535" y1="31.62181" x2="61.79606" y2="38.86251"/><path class="cls-1" d="M45.70377,118.06861a25.39071,25.39071,0,0,0,5.78434-24.09378l-.0066.00372c1.4699-3.86711,1.46516-7.20421-.37973-9.05677s-5.16813-1.85737-9.01917-.3814l.00361-.00653a25.12182,25.12182,0,0,0-23.99417,5.80821A63.54184,63.54184,0,0,0,2,114.09526s17.74983-16.02878,23.77991-14.7695l.005-.00286a36.62108,36.62108,0,0,0-3.08631,14.12016,36.206,36.206,0,0,0,14.06168-3.09914l-.00285.005c1.25407,6.05516-14.70833,23.87881-14.70833,23.87881A63.21358,63.21358,0,0,0,45.70377,118.06861Z"/><line class="cls-1" x1="82.07628" y1="62.80775" x2="69.16541" y2="75.77231"/><line class="cls-1" x1="63.4064" y1="125.93846" x2="139.20838" y2="125.93846"/><line class="cls-1" x1="99.04997" y1="111.14638" x2="124.58202" y2="111.14638"/></g></g></svg>