<svg width="72" height="42" viewBox="0 0 72 42" fill="none" xmlns="http://www.w3.org/2000/svg">
<path d="M21.3709 21.0527C20.5762 21.0381 19.8035 20.7891 19.1498 20.3369C18.4961 19.8847 17.9905 19.2496 17.6964 18.5111C17.4024 17.7726 17.333 16.9638 17.4969 16.186C17.6609 15.4082 18.051 14.6962 18.6181 14.1393C19.1852 13.5824 19.9042 13.2054 20.6849 13.0557C21.4655 12.9059 22.273 12.99 23.0059 13.2975C23.7389 13.6049 24.3648 14.122 24.8049 14.7839C25.2451 15.4457 25.48 16.2229 25.4801 17.0177" stroke="black"/>
<path d="M21.3709 21.0527C22.1657 21.0674 22.9384 21.3164 23.5921 21.7685C24.2458 22.2207 24.7514 22.8559 25.0455 23.5943C25.3395 24.3328 25.4089 25.1417 25.2449 25.9194C25.0809 26.6972 24.6909 27.4092 24.1238 27.9661C23.5566 28.523 22.8376 28.9 22.057 29.0498C21.2764 29.1995 20.4689 29.1154 19.7359 28.808C19.0029 28.5005 18.3771 27.9834 17.9369 27.3215C17.4967 26.6597 17.2619 25.8826 17.2617 25.0877" stroke="black"/>
<path d="M21.3713 32.49V29.123" stroke="black"/>
<path d="M21.3713 12.8708V9.50391" stroke="black"/>
<path d="M21.3712 41C32.6218 41 41.7423 32.0457 41.7423 21C41.7423 9.95431 32.6218 1 21.3712 1C10.1205 1 1 9.95431 1 21C1 32.0457 10.1205 41 21.3712 41Z" stroke="black"/>
<path d="M70.1249 18.8532L58.1365 6.83301L46.1482 18.8532H54.2076V34.781H62.0655V18.8532H70.1249Z" stroke="black"/>
</svg>
