<svg width="50" height="50" viewBox="0 0 50 50" fill="none" xmlns="http://www.w3.org/2000/svg">
<path d="M32.8866 28.7797C39.303 28.7797 44.5044 23.5693 44.5044 17.1418C44.5044 10.7144 39.303 5.50391 32.8866 5.50391C26.4703 5.50391 21.2688 10.7144 21.2688 17.1418C21.2688 23.5693 26.4703 28.7797 32.8866 28.7797Z" stroke="white" stroke-linecap="round" stroke-linejoin="round"/>
<path d="M2.49277 48.8679L1.26615 47.6392C0.892941 47.2651 0.68335 46.7582 0.68335 46.2297C0.68335 45.7013 0.892941 45.1944 1.26615 44.8203L12.8108 33.2557C12.9954 33.0706 13.2147 32.9238 13.4562 32.8236C13.6976 32.7234 13.9564 32.6719 14.2178 32.6719C14.4792 32.6719 14.738 32.7234 14.9795 32.8236C15.2209 32.9238 15.4402 33.0706 15.6248 33.2557L16.8514 34.4844C17.2247 34.8585 17.4343 35.3654 17.4343 35.8939C17.4343 36.4223 17.2247 36.9292 16.8514 37.3033L5.30678 48.8679C5.12218 49.053 4.90287 49.1998 4.66144 49.3C4.42 49.4002 4.16117 49.4517 3.89978 49.4517C3.63838 49.4517 3.37956 49.4002 3.13812 49.3C2.89668 49.1998 2.67738 49.053 2.49277 48.8679Z" stroke="white" stroke-linecap="round" stroke-linejoin="round"/>
<path d="M49.3163 17.1418C49.3233 20.265 48.4395 23.3255 46.7685 25.9642C45.0975 28.6029 42.7087 30.7103 39.8823 32.0392C37.0558 33.3682 33.909 33.8635 30.811 33.4672C27.713 33.0709 24.7923 31.7993 22.3914 29.8016C21.63 29.1708 20.9285 28.4709 20.2958 27.711C18.5928 25.6874 17.4032 23.2828 16.8278 20.7014C16.2525 18.1199 16.3084 15.4377 16.9908 12.8825C17.6732 10.3272 18.9621 7.97431 20.7479 6.02344C22.5337 4.07257 24.7638 2.58132 27.2489 1.67625C29.734 0.771169 32.4008 0.478984 35.023 0.824487C37.6451 1.16999 40.1452 2.14298 42.3111 3.66089C44.4769 5.1788 46.2447 7.19682 47.4642 9.54368C48.6837 11.8905 49.3191 14.497 49.3163 17.1418Z" stroke="white" stroke-linecap="round" stroke-linejoin="round"/>
<path d="M22.3916 29.8015L17.6464 34.5549L15.5508 32.46L20.2959 27.7109C20.9286 28.4709 21.6301 29.1707 22.3916 29.8015Z" stroke="white" stroke-linecap="round" stroke-linejoin="round"/>
<path d="M27.7405 22.1248L31.9039 10.9778C32.1396 10.3345 32.5078 10.0128 33.0085 10.0127C33.5209 10.0127 33.8951 10.3226 34.1311 10.9423L38.3473 22.1248M28.9376 18.9197H37.1389" stroke="white" stroke-linecap="round" stroke-linejoin="round"/>
</svg>
