<svg xmlns="http://www.w3.org/2000/svg" viewBox="0 0 146.31377 146.70873"><defs><style>.cls-1{fill:none;stroke:#000;stroke-linecap:round;stroke-linejoin:round;stroke-width:4px;}</style></defs><title>Search</title><g id="Layer_2" data-name="Layer 2"><g id="VECTOR"><ellipse class="cls-1" cx="96.23545" cy="50.16264" rx="33.99696" ry="34.05573"/><path class="cls-1" d="M7.29487,143.00034l-3.58943-3.59563a5.83991,5.83991,0,0,1,0-8.24881L37.48831,97.31463a5.81561,5.81561,0,0,1,8.23457,0l3.58943,3.59563a5.83991,5.83991,0,0,1,0,8.24881L15.52944,143.00034A5.81561,5.81561,0,0,1,7.29487,143.00034Z"/><path class="cls-1" d="M144.31377,50.16116A48.05376,48.05376,0,0,1,65.52416,87.20721a46.96922,46.96922,0,0,1-6.13243-6.11768,48.11124,48.11124,0,1,1,84.922-30.92837Z"/><path class="cls-1" d="M65.52416,87.20721,51.63852,101.11678,45.50609,94.9865l13.88564-13.897A46.96922,46.96922,0,0,0,65.52416,87.20721Z"/><path class="cls-1" d="M81.17661,64.74337l12.18326-32.619q1.03449-2.824,3.23234-2.82428,2.24939,0,3.28511,2.7204l12.33789,32.7229m-27.5356-9.37881H108.679"/></g></g></svg>