<svg xmlns="http://www.w3.org/2000/svg" viewBox="0 0 63.82601 137.28306"><defs><style>.cls-1{fill:none;stroke:#000;stroke-linecap:round;stroke-linejoin:round;stroke-width:4px;}</style></defs><title>Start-up</title><g id="Layer_2" data-name="Layer 2"><g id="VECTOR"><path class="cls-1" d="M54.928,51.10972,51.144,66.03043l-6.1168,5.0266L43.19684,86.55838H20.62909l-2.64-14.66966-5.96223-5.24888L8.08826,51.10972c0-6.36612,4.18884-17.43113,9.02562-28.07455,2.85739-6.296,5.94159-12.44652,8.5192-17.39492a6.55854,6.55854,0,0,1,11.74674-.00053c2.5782,4.94849,5.66344,11.09924,8.52253,17.39545C50.739,33.67859,54.928,44.7436,54.928,51.10972Z"/><ellipse class="cls-1" cx="31.50874" cy="36.46778" rx="7.87207" ry="8.19667"/><path class="cls-1" d="M61.826,82.21211V93.79a4.29405,4.29405,0,0,1-7.16989,3.35633l-11.45928-10.588L45.02718,71.057l6.1168-5.0266,6.1508,5.6839A14.29615,14.29615,0,0,1,61.826,82.21211Z"/><path class="cls-1" d="M17.98905,71.88872l2.64,14.66966L9.1699,97.14631A4.29405,4.29405,0,0,1,2,93.79V82.21211A14.29618,14.29618,0,0,1,6.53123,71.71433l5.49559-5.07449Z"/><path class="cls-1" d="M36.61377,94.16309H26.40246l-6.05285,10.07015a16.66531,16.66531,0,0,0,1.3291,19.01038l9.82941,12.03944,9.8294-12.03944a16.66531,16.66531,0,0,0,1.3291-19.01038Z"/></g></g></svg>