<svg width="50" height="50" viewBox="0 0 50 50" fill="none" xmlns="http://www.w3.org/2000/svg">
<path d="M39.5993 5.64356H15.2749C14.0102 5.64174 12.7576 5.8898 11.589 6.37352C10.4205 6.85723 9.359 7.56706 8.4656 8.46222C7.8138 9.11397 7.25773 9.85485 6.81396 10.6627" stroke="white" stroke-width="2" stroke-linecap="round" stroke-linejoin="round"/>
<path d="M6.81396 19.8857C7.64089 21.4081 8.86348 22.6789 10.3527 23.564C11.8419 24.4492 13.5425 24.9159 15.2749 24.9148H26.5544" stroke="white" stroke-width="2" stroke-linecap="round" stroke-linejoin="round"/>
<path d="M10.3989 44.1853H35.9547C37.6573 44.1854 39.3295 43.7343 40.801 42.8778C42.2725 42.0213 43.4907 40.7901 44.3315 39.3096" stroke="white" stroke-width="2" stroke-linecap="round" stroke-linejoin="round"/>
<path d="M44.3317 29.7859C43.4904 28.3062 42.2719 27.0759 40.8004 26.2202C39.329 25.3646 37.657 24.9143 35.9548 24.915H24.6753" stroke="white" stroke-width="2" stroke-linecap="round" stroke-linejoin="round"/>
<path d="M49.1185 5.64388C49.118 6.58502 48.8385 7.50489 48.3153 8.28721C47.7922 9.06954 47.0488 9.6792 46.1792 10.0391C45.3096 10.3991 44.3528 10.4931 43.4298 10.3094C42.5068 10.1257 41.6589 9.67243 40.9934 9.00695C40.3279 8.34147 39.8747 7.49362 39.6909 6.57059C39.5072 5.64756 39.6013 4.69078 39.9612 3.82118C40.3211 2.95158 40.9308 2.20821 41.7131 1.68503C42.4954 1.16185 43.4153 0.882338 44.3564 0.881836C44.9818 0.881569 45.6012 1.00456 46.1791 1.24378C46.757 1.483 47.282 1.83376 47.7243 2.27601C48.1665 2.71826 48.5173 3.24332 48.7565 3.8212C48.9958 4.39908 49.1188 5.01844 49.1185 5.64388Z" stroke="white" stroke-width="2" stroke-linecap="round" stroke-linejoin="round"/>
<path d="M6.81389 19.8859C6.79904 19.8909 6.77924 19.8959 6.7644 19.9008C5.53859 20.1979 4.24498 19.9962 3.16783 19.34C2.09068 18.6838 1.31812 17.6268 1.01992 16.4012C0.721728 15.1757 0.922292 13.8819 1.57754 12.8042C2.23279 11.7264 3.28911 10.9529 4.51439 10.6536C5.26986 10.4663 6.06005 10.4697 6.81388 10.6635C7.83905 10.9242 8.74811 11.5191 9.39741 12.3542C10.0467 13.1893 10.3992 14.2169 10.3992 15.2747C10.3992 16.3325 10.0467 17.3602 9.39741 18.1953C8.74811 19.0303 7.83906 19.6252 6.81389 19.8859Z" stroke="white" stroke-width="2" stroke-linecap="round" stroke-linejoin="round"/>
<path d="M10.3989 44.1853C10.3968 45.3974 9.93188 46.563 9.09923 47.4439C8.26657 48.3248 7.12899 48.8545 5.9189 48.9248C4.7088 48.9952 3.51752 48.6008 2.58842 47.8223C1.65932 47.0438 1.06254 45.9399 0.919981 44.7362C0.777428 43.5325 1.09987 42.3198 1.82142 41.3458C2.54298 40.3718 3.6092 39.7101 4.80225 39.4958C5.9953 39.2815 7.22514 39.5309 8.24052 40.1929C9.25589 40.855 9.98017 41.8797 10.2654 43.0578C10.3533 43.4272 10.3981 43.8056 10.3989 44.1853Z" stroke="white" stroke-width="2" stroke-linecap="round" stroke-linejoin="round"/>
<path d="M45.4839 39.1708C45.1067 39.2628 44.7199 39.3093 44.3316 39.3093C43.1695 39.3028 42.0499 38.8714 41.1838 38.0965C40.3178 37.3215 39.7652 36.2565 39.6301 35.1022C39.4951 33.9479 39.7871 32.7841 40.4509 31.8302C41.1147 30.8762 42.1046 30.1981 43.2339 29.9236C43.593 29.8342 43.9615 29.7877 44.3316 29.7852C45.4975 29.78 46.6248 30.2027 47.4998 30.9733C48.3747 31.7439 48.9364 32.8088 49.0785 33.966C49.2206 35.1232 48.9331 36.2923 48.2705 37.2517C47.608 38.211 46.6164 38.8939 45.4839 39.1708Z" stroke="white" stroke-width="2" stroke-linecap="round" stroke-linejoin="round"/>
<path d="M20.7395 30.7578L23.2064 34.5472H4.52393" stroke="white" stroke-width="2" stroke-linecap="round" stroke-linejoin="round"/>
<path d="M21.0039 38.7783L23.2067 34.5479" stroke="white" stroke-width="2" stroke-linecap="round" stroke-linejoin="round"/>
</svg>
