<svg xmlns="http://www.w3.org/2000/svg" viewBox="0 0 113.42177 113.02483"><defs><style>.cls-1{fill:none;stroke:#000;stroke-linecap:round;stroke-linejoin:round;stroke-width:4px;}</style></defs><title>Target</title><g id="Layer_2" data-name="Layer 2"><g id="VECTOR"><path class="cls-1" d="M89.82816,12.80238H34.64967a21.77857,21.77857,0,0,0-15.44639,6.39393,22.11744,22.11744,0,0,0-3.74662,4.99175"/><path class="cls-1" d="M15.45666,45.10856a21.82637,21.82637,0,0,0,19.193,11.40811H60.23661"/><path class="cls-1" d="M23.58929,100.231H81.56092a21.85147,21.85147,0,0,0,19.00232-11.06037"/><path class="cls-1" d="M100.56324,67.56583A21.84766,21.84766,0,0,0,81.56092,56.51667H55.974"/><path class="cls-1" d="M111.42177,12.80238A10.79677,10.79677,0,1,1,100.61925,2,10.79791,10.79791,0,0,1,111.42177,12.80238Z"/><path class="cls-1" d="M15.45667,45.10854c-.03368.01123-.0786.02246-.11228.03369a10.79431,10.79431,0,0,1-5.104-20.97659,10.65311,10.65311,0,0,1,5.21626.02245,10.79317,10.79317,0,0,1,0,20.92045Z"/><path class="cls-1" d="M23.5893,100.231a10.78861,10.78861,0,1,1-.30289-2.55761A11.14032,11.14032,0,0,1,23.5893,100.231Z"/><path class="cls-1" d="M103.17685,88.85648a11.02424,11.02424,0,0,1-2.61374.31413,10.79818,10.79818,0,0,1-2.49024-21.29072,10.59356,10.59356,0,0,1,2.49024-.31405,10.79991,10.79991,0,0,1,2.61374,21.29064Z"/><polyline class="cls-1" points="47.046 69.772 52.642 78.368 10.262 78.368"/><line class="cls-1" x1="47.64555" y1="87.96466" x2="52.64241" y2="78.36817"/></g></g></svg>