<svg xmlns="http://www.w3.org/2000/svg" viewBox="0 0 140 122.00909"><defs><style>.cls-1{fill:none;stroke:#000;stroke-linecap:round;stroke-linejoin:round;stroke-width:4px;}</style></defs><title>Teamwork</title><g id="Layer_2" data-name="Layer 2"><g id="VECTOR"><path class="cls-1" d="M13.16682,87.09409l1.5169-3.2885a16.64154,16.64154,0,0,1,7.97-8.06941l10.38337-4.92629c6.47209-3.07063,10.08128,4.68607,3.60919,7.75671l19.42389-9.21551c4.00415-1.89974,7.99525,6.1439,3.9911,8.04363l-2.08649,1.06519c4.03315-1.9135,7.64234,5.84321,3.60919,7.75671L57.8589,87.984c3.78447-1.79551,6.77139,4.62384,2.98692,6.41935l-3.45908,1.64113c4.31714-2.04823,7.67742,5.17352,3.36028,7.22175l-22.49574,9.96629a20.98762,20.98762,0,0,1-15.91128.86618l-.4099-.14289-7.98243,3.7872L2,92.06558Z"/><line class="cls-1" x1="57.97483" y1="78.45989" x2="48.10786" y2="83.1412"/><line class="cls-1" x1="57.85888" y1="87.98396" x2="51.07382" y2="91.20308"/><line class="cls-1" x1="57.38675" y1="96.04443" x2="53.06293" y2="98.09583"/><line class="cls-1" x1="36.6463" y1="78.56659" x2="27.20043" y2="83.04811"/><path class="cls-1" d="M112.12155,112.74009l-3.57847.32157a16.43888,16.43888,0,0,1-10.90875-2.92336l-9.42362-6.60693c-5.87388-4.11819-1.0334-11.15794,4.84048-7.03975L75.42265,84.13221c-3.63405-2.54784,1.261-10.06509,4.8951-7.51726l1.95814,1.28994c-3.66036-2.56629,1.18011-9.606,4.84048-7.03975l3.38079,2.37028c-3.43467-2.40806.57124-8.23406,4.00591-5.826l3.13935,2.201c-3.9181-2.747.58855-9.30124,4.50665-6.55425l19.81079,14.668A21.39937,21.39937,0,0,1,130.67253,91.196l.08286.42982L138,96.70506l-16.02365,23.304Z"/><line class="cls-1" x1="82.27588" y1="77.90489" x2="91.23084" y2="84.18324"/><line class="cls-1" x1="90.49717" y1="73.23543" x2="96.65509" y2="77.55276"/><line class="cls-1" x1="97.64242" y1="69.61042" x2="101.56658" y2="72.36166"/><line class="cls-1" x1="93.05119" y1="96.49163" x2="101.62398" y2="102.50204"/><path class="cls-1" d="M82.73169,14.32193l2.3274,2.76355a16.81759,16.81759,0,0,1,3.93964,10.67985l.10413,11.584c.06492,7.22049-8.422,7.29829-8.48689.07779l.19481,21.67c.04016,4.46717-8.86426,4.77583-8.90442.30866l-.08867-2.35916c.04045,4.49953-8.44644,4.57733-8.48689.0778l-.03737-4.15586c.038,4.22209-6.98568,4.28647-7.02364.06439l-.03469-3.85907c.0433,4.81635-7.85828,4.88878-7.90158.07244L48.74393,26.444a21.49644,21.49644,0,0,1,5.8556-14.96436l.29955-.31662L54.819,2.25753,82.91359,2Z"/><line class="cls-1" x1="71.8177" y1="59.04667" x2="71.71874" y2="48.03873"/><line class="cls-1" x1="63.29344" y1="54.96858" x2="63.22539" y2="47.39892"/><line class="cls-1" x1="56.2351" y1="51.17392" x2="56.19174" y2="46.35012"/><line class="cls-1" x1="80.61598" y1="39.42716" x2="80.52124" y2="28.88901"/></g></g></svg>