<svg width="50" height="44" viewBox="0 0 50 44" fill="none" xmlns="http://www.w3.org/2000/svg">
<path d="M4.70251 31.1047L5.24426 29.9303C5.82634 28.666 6.83369 27.6461 8.09068 27.0483L11.799 25.289C14.1105 24.1923 15.3995 26.9626 13.088 28.0592L20.0251 24.768C21.4552 24.0895 22.8806 26.9622 21.4505 27.6407L20.7053 28.0211C22.1458 27.3377 23.4348 30.108 21.9943 30.7914L20.664 31.4226C22.0156 30.7813 23.0823 33.0739 21.7307 33.7152L20.4953 34.3013C22.0372 33.5698 23.2373 36.149 21.6954 36.8805L13.6612 40.4399C11.8814 41.2861 9.83985 41.3972 7.97864 40.7492L7.83225 40.6982L4.98138 42.0508L0.714355 32.8803L4.70251 31.1047Z" stroke="white" stroke-linecap="round" stroke-linejoin="round"/>
<path d="M20.7053 28.0205L17.1814 29.6924" stroke="white" stroke-linecap="round" stroke-linejoin="round"/>
<path d="M20.664 31.4229L18.2407 32.5725" stroke="white" stroke-linecap="round" stroke-linejoin="round"/>
<path d="M20.4954 34.3008L18.9512 35.0334" stroke="white" stroke-linecap="round" stroke-linejoin="round"/>
<path d="M13.0881 28.0586L9.7146 29.6591" stroke="white" stroke-linecap="round" stroke-linejoin="round"/>
<path d="M40.0434 40.2638L38.7654 40.3787C37.3842 40.5017 36.004 40.1318 34.8694 39.3346L31.5038 36.975C29.406 35.5042 31.1347 32.99 33.2326 34.4608L26.9366 30.0467C25.6388 29.1368 27.387 26.4521 28.6849 27.362L29.3842 27.8227C28.077 26.9062 29.8057 24.392 31.113 25.3085L32.3204 26.155C31.0937 25.295 32.5244 23.2143 33.7511 24.0743L34.8723 24.8604C33.473 23.8793 35.0825 21.5385 36.4818 22.5196L43.5571 27.7581C45.179 28.8977 46.2947 30.6229 46.6687 32.5695L46.6983 32.723L49.2857 34.537L43.563 42.8599L40.0434 40.2638Z" stroke="white" stroke-linecap="round" stroke-linejoin="round"/>
<path d="M29.3843 27.8232L32.5825 30.0655" stroke="white" stroke-linecap="round" stroke-linejoin="round"/>
<path d="M32.3206 26.1553L34.5198 27.6972" stroke="white" stroke-linecap="round" stroke-linejoin="round"/>
<path d="M34.8723 24.8604L36.2738 25.8429" stroke="white" stroke-linecap="round" stroke-linejoin="round"/>
<path d="M33.2327 34.4609L36.2944 36.6075" stroke="white" stroke-linecap="round" stroke-linejoin="round"/>
<path d="M29.547 5.11456L30.3782 6.10154C31.2764 7.17074 31.7739 8.51946 31.7853 9.91577L31.8224 14.0529C31.8456 16.6317 28.8146 16.6594 28.7914 14.0807L28.861 21.82C28.8753 23.4154 25.6952 23.5256 25.6808 21.9302L25.6492 21.0877C25.6636 22.6946 22.6326 22.7224 22.6181 21.1154L22.6048 19.6312C22.6184 21.1391 20.1099 21.1621 20.0963 19.6542L20.084 18.276C20.0994 19.9961 17.2774 20.022 17.262 18.3018L17.4085 9.44387C17.3885 7.45903 18.1381 5.54359 19.4998 4.09945L19.6068 3.98637L19.5782 0.805842L29.612 0.713867L29.547 5.11456Z" stroke="white" stroke-linecap="round" stroke-linejoin="round"/>
<path d="M25.6494 21.0877L25.614 17.1562" stroke="white" stroke-linecap="round" stroke-linejoin="round"/>
<path d="M22.6049 19.6312L22.5806 16.9277" stroke="white" stroke-linecap="round" stroke-linejoin="round"/>
<path d="M20.0841 18.2755L20.0686 16.5527" stroke="white" stroke-linecap="round" stroke-linejoin="round"/>
<path d="M28.7914 14.081L28.7576 10.3174" stroke="white" stroke-linecap="round" stroke-linejoin="round"/>
</svg>
